<svg xmlns="http://www.w3.org/2000/svg" viewBox="0 0 75.08 30.78"><defs><style>.cls-1{fill:#231f20;}.cls-2{fill:#fff;fill-rule:evenodd;}</style></defs><g id="Layer_2" data-name="Layer 2"><g id="Layer_1-2" data-name="Layer 1"><path class="cls-1" d="M71.38,14.17a5.48,5.48,0,0,1,1.05,3.11c0,6.49-5.86,11.71-29.8,13.42C62.71,31.5,74.7,26.28,75.07,20,75.19,18,73.84,16,71.38,14.17ZM48.26,24.84a2,2,0,0,0,1.46,1.4s.1,0,.41.12a7.69,7.69,0,0,0,1,.14q.48,0,1,0a12,12,0,0,0,1.58-.1,7.42,7.42,0,0,0,1.44-.31h0a4.91,4.91,0,0,0,1.36-.66l.06,0a8.42,8.42,0,0,0,2.91.57,5.84,5.84,0,0,0,2.4-.5,4.16,4.16,0,0,0,1.57-1.21,3.4,3.4,0,0,0,.78-2.13,3.54,3.54,0,0,0-1.51-2.81l-.17-.12.19-.48a2.16,2.16,0,0,0,.13-.7h.91a16.36,16.36,0,0,0,2.92-.44,2,2,0,0,0,1.5-1.55l.08-.41a12.27,12.27,0,0,0,.26-2.61V13a10.27,10.27,0,0,0-.34-2.56,6.54,6.54,0,0,0-1.52-2.89,5.24,5.24,0,0,0-2.83-1.51,8.6,8.6,0,0,0-1.41-.13,6.49,6.49,0,0,0-3.89,1.31,5.53,5.53,0,0,0-.42-.89h0a4.5,4.5,0,0,0-3.2-2.2,5.35,5.35,0,0,0-.89-.08,4.88,4.88,0,0,0-1.42.21,2,2,0,0,0-1.4-.47L47.93,4A2,2,0,0,0,46,5.9L46,7.74l-.19-.17A4.85,4.85,0,0,0,43,6.39l-.67,0a6.45,6.45,0,0,0-1.91.29,2,2,0,0,0-1.08-1l-.2-.07-.55-.44a2,2,0,0,0-3,.58l-.09.15a2,2,0,0,0-.68-1.19,2,2,0,0,0-1.53-.46l-2.68.31a2,2,0,0,0-1.53,1l-.94,1.73-.93-2.6a2,2,0,0,0-2.44-1.25l-1.66.47a2.19,2.19,0,0,0-.82.45l-1-3A2,2,0,0,0,19.13,0L16,.31a2,2,0,0,0-1.62,1.14L11.07,8.39C4.4,10.26.13,13.17,0,16.58c-.07,2,1.32,4,3.82,5.73a7.14,7.14,0,0,1-1.35-3.49c-.08-3.1,2.52-5.79,7.42-8l-3.84,8a2,2,0,0,0,.69,2.53l4.35,3a2,2,0,0,0,3-1l1.49-4.16,5.24,0L21.76,22a2,2,0,0,0,2.39,1.31l2-.49a2,2,0,0,0,1.43-2.58l-1-2.92,2.79-.92a2,2,0,0,0,1.05-.8l.06.23.09.27a5.11,5.11,0,0,0-.48.45A6.26,6.26,0,0,0,28.22,21a5.3,5.3,0,0,0,1.91,4.11,7.93,7.93,0,0,0,5.17,1.61h0c.55,0,1.14,0,1.75-.11a1.88,1.88,0,0,0,.67-.21,2,2,0,0,0,1,.21l1.73-.09a2,2,0,0,0,1.65-1,4.29,4.29,0,0,0,6.13-.59Z"/><path class="cls-2" d="M25.63,20.88l-2,.48-1.39-4.11-8.09,0-2,5.49L7.87,19.76,16.2,2.31,19.33,2l6.3,18.87Zm-5.19-9L18.27,4.35,15.44,13.1l5-1.21ZM33.91,15l-1.49.38L30.8,9,28.74,14.5l-2.83.93-2.3-9.56,1.66-.47,2.43,6.8,3.1-5.64,2.67-.32.35,6.67,3.47-6.17,1.2,1Zm12-.29,0,.38a11.25,11.25,0,0,1-2.28.55,8.8,8.8,0,0,1-2.17.06,4.64,4.64,0,0,1-1.06-.2,2.65,2.65,0,0,1-.84-.42,2,2,0,0,1-.65-.73,2.07,2.07,0,0,1-.15-1,2.26,2.26,0,0,1,1.14-1.64A8.89,8.89,0,0,1,43,10.59a1.31,1.31,0,0,0-.49-.75,1.72,1.72,0,0,0-.94-.31,2.23,2.23,0,0,0-1.15.15,2.72,2.72,0,0,0-1,.68l-.34-.42A4,4,0,0,1,42.79,8.4a2.76,2.76,0,0,1,1.65.69,3.94,3.94,0,0,1,1.09,1.7A9.8,9.8,0,0,1,46,12.64a8.76,8.76,0,0,1,0,2Zm-2.77-.78c.05-.44.06-.87.07-1.31a9.29,9.29,0,0,0-.09-1.28,11.34,11.34,0,0,0-1.25.32,8,8,0,0,0-1,.37l.47,3c.39,0,.72,0,1,0a2.32,2.32,0,0,0,.68-.14c0-.18,0-.35.07-.51s0-.34,0-.5Zm14,.77-3.77.51c.39-2,.57-3.5.72-4.25s.24-1.2.26-1.37a2.62,2.62,0,0,0-.07-1.46,1,1,0,0,0-.84-.6,2,2,0,0,0-1.26.31,7.64,7.64,0,0,0-1.56,1.32l-1,4.67-2,.38L48,6l3.3-.18L51,7.57A5.41,5.41,0,0,1,52.8,6.35a3.08,3.08,0,0,1,1.81-.21A2.42,2.42,0,0,1,56.4,7.35a6.08,6.08,0,0,1,.67,2.88L57.15,14Zm9.19.61-.08.42a14,14,0,0,1-2.55.4,11.27,11.27,0,0,1-2.41-.17,5.28,5.28,0,0,1-1.16-.33,3.37,3.37,0,0,1-.88-.55,2,2,0,0,1-.62-.88,1.85,1.85,0,0,1-.07-1.1A2.4,2.4,0,0,1,60,11.35a9.21,9.21,0,0,1,3.48-.87A1.46,1.46,0,0,0,63,9.61a1.91,1.91,0,0,0-1-.46,2.57,2.57,0,0,0-1.3.07,3.16,3.16,0,0,0-1.14.63l-.34-.49a4.44,4.44,0,0,1,1.93-1.22A4.75,4.75,0,0,1,63.49,8,3.11,3.11,0,0,1,65.23,9a4.4,4.4,0,0,1,1,2A7.87,7.87,0,0,1,66.54,13a9.94,9.94,0,0,1-.22,2.26Zm-3-1.15a13,13,0,0,0,.18-1.43,10.88,10.88,0,0,0,0-1.41c-.53.07-1,.12-1.42.2s-.8.22-1.13.33l.22,3.39c.43.07.79.12,1.1.14a2.85,2.85,0,0,0,.78-.1c0-.19.08-.38.11-.56s.06-.36.11-.56ZM34.93,16.54l.33,1.63c-1.2.08-3.34,1-3.26,2.31.07,1,1,2.81,4.56,2.09l.26,2C27.51,25.67,29.18,16.62,34.93,16.54Zm15.26,7.75a4.2,4.2,0,0,0,1.12.2,10.52,10.52,0,0,0,2.18-.06,5.07,5.07,0,0,0,1.06-.22,3.05,3.05,0,0,0,.83-.4,1.83,1.83,0,0,0,.62-.66,1.56,1.56,0,0,0,.12-.87,1.92,1.92,0,0,0-1.2-1.35,11.92,11.92,0,0,0-3.43-.83c.07-.63,0-3.39,0-3.39l-2.31.57ZM51.59,21c.45.07.89.13,1.26.22a9.42,9.42,0,0,1,1,.26l-.31,2.3a10,10,0,0,1-1,.06,2.22,2.22,0,0,1-.69-.09A24.62,24.62,0,0,1,51.59,21Zm-3.9-3c1.35,8-6.11,9-6.22.34l1.34.14c.45,3.25,1.21,4.27,1.84,4.2,1.06-.11,1.68-2.69,1.51-4.34L47.7,18Zm9.94,4.31c3.78.84,3.7-.72.41-1.45-5-1.1-1.74-5.55,2.83-2.78l-.43,1.13c-2.43-1.63-4.79.21-1.38.87,4.19.81,3.52,2.95,2,3.64a5.21,5.21,0,0,1-3.69-.1Zm-19,2.24,1.73-.1-.3-7.28-2.59-.54Z"/><path class="cls-1" d="M71.33,9.93A1.58,1.58,0,1,1,69.7,11.5a1.58,1.58,0,0,1,1.63-1.57Zm0,.31a1.26,1.26,0,0,0,0,2.52,1.21,1.21,0,0,0,1.2-1.26,1.22,1.22,0,0,0-1.21-1.26Zm-.24,2.08h-.36V10.75a2.85,2.85,0,0,1,.6-.06.88.88,0,0,1,.55.13.42.42,0,0,1,.15.34.4.4,0,0,1-.32.37v0a.44.44,0,0,1,.28.38,1,1,0,0,0,.12.39H71.7a1.22,1.22,0,0,1-.13-.38c0-.17-.12-.25-.33-.25h-.17Zm0-.89h.17c.21,0,.37-.06.37-.23s-.11-.24-.34-.24l-.2,0Z"/></g></g></svg>