<?xml version="1.0" standalone="no"?>
<!DOCTYPE svg PUBLIC "-//W3C//DTD SVG 20010904//EN"
 "http://www.w3.org/TR/2001/REC-SVG-20010904/DTD/svg10.dtd">
<svg version="1.0" xmlns="http://www.w3.org/2000/svg"
 width="2084.000000pt" height="2084.000000pt" viewBox="0 0 2084.000000 2084.000000"
 preserveAspectRatio="xMidYMid meet">
<metadata>
Created by potrace 1.11, written by Peter Selinger 2001-2013
</metadata>
<g transform="translate(0.000000,2084.000000) scale(0.100000,-0.100000)"
fill="#000000" stroke="none">
<path d="M0 10425 l0 -10415 10415 0 10415 0 0 10415 0 10415 -10415 0 -10415
0 0 -10415z m8820 8590 c0 -32 2 -35 30 -35 l30 0 0 -65 0 -65 140 0 140 0 0
-35 c0 -32 2 -35 30 -35 l30 0 0 -170 0 -170 35 0 c33 0 35 2 35 35 l0 35 135
0 135 0 0 -70 0 -70 35 0 35 0 0 -170 0 -170 -35 0 -35 0 0 -100 0 -100 -30 0
-30 0 0 -70 0 -70 30 0 c28 0 30 3 30 35 0 33 2 35 35 35 33 0 35 2 35 35 l0
35 70 0 70 0 0 -35 c0 -33 2 -35 35 -35 l35 0 0 -135 0 -135 -35 0 -35 0 0
-70 0 -70 -35 0 c-33 0 -35 -2 -35 -35 0 -33 -2 -35 -35 -35 -33 0 -35 -2 -35
-35 0 -33 -2 -35 -35 -35 l-35 0 0 -65 0 -65 105 0 105 0 0 -70 0 -70 -35 0
-35 0 0 -65 0 -65 -35 0 c-33 0 -35 -2 -35 -35 0 -33 -2 -35 -35 -35 l-35 0 0
-135 0 -135 -30 0 -30 0 0 -70 0 -70 -35 0 -35 0 0 -205 0 -205 -70 0 -70 0 0
35 c0 33 -2 35 -35 35 -33 0 -35 2 -35 35 0 33 2 35 35 35 l35 0 0 100 0 100
-35 0 c-33 0 -35 2 -35 35 0 32 -2 35 -30 35 -28 0 -30 3 -30 35 l0 35 -70 0
-70 0 0 35 c0 33 -2 35 -35 35 l-35 0 0 135 0 135 -100 0 -100 0 0 35 c0 33
-2 35 -35 35 l-35 0 0 65 0 65 -35 0 c-33 0 -35 2 -35 35 0 33 2 35 35 35 33
0 35 2 35 35 l0 35 70 0 70 0 0 -35 c0 -32 2 -35 30 -35 l30 0 0 70 0 70 -65
0 -65 0 0 30 0 30 -105 0 -105 0 0 35 0 35 -65 0 -65 0 0 35 c0 33 -2 35 -35
35 -33 0 -35 2 -35 35 0 33 -2 35 -35 35 l-35 0 0 135 0 135 170 0 170 0 0 35
c0 33 -2 35 -35 35 -33 0 -35 2 -35 35 l0 35 -65 0 -65 0 0 30 c0 28 -3 30
-35 30 l-35 0 0 70 0 70 -35 0 -35 0 0 135 0 135 35 0 c33 0 35 2 35 35 0 33
2 35 35 35 33 0 35 -2 35 -35 0 -33 2 -35 35 -35 l35 0 0 70 0 70 -35 0 -35 0
0 65 0 65 -35 0 c-33 0 -35 2 -35 35 0 33 2 35 35 35 33 0 35 2 35 35 0 33 2
35 35 35 33 0 35 2 35 35 0 32 2 35 30 35 l30 0 0 100 0 100 35 0 c33 0 35 2
35 35 l0 35 105 0 105 0 0 -35z m-1640 -100 l0 -65 35 0 35 0 0 -170 0 -170
35 0 35 0 0 -170 0 -170 35 0 35 0 0 -105 0 -105 35 0 35 0 0 -100 0 -100 30
0 30 0 0 -105 0 -105 35 0 35 0 0 -65 0 -65 35 0 c33 0 35 -2 35 -35 0 -33 2
-35 35 -35 l35 0 0 -70 0 -70 35 0 c32 0 35 -2 35 -30 0 -27 3 -30 30 -30 28
0 30 -3 30 -35 0 -33 2 -35 35 -35 33 0 35 -2 35 -35 0 -33 2 -35 35 -35 33 0
35 -2 35 -35 0 -33 2 -35 35 -35 33 0 35 -2 35 -35 0 -33 2 -35 35 -35 32 0
35 -2 35 -30 0 -27 3 -30 30 -30 28 0 30 -3 30 -35 0 -33 2 -35 35 -35 33 0
35 -2 35 -35 0 -33 2 -35 35 -35 33 0 35 -2 35 -35 0 -33 2 -35 35 -35 33 0
35 -2 35 -35 l0 -35 65 0 65 0 0 -30 c0 -28 3 -30 35 -30 33 0 35 -2 35 -35 0
-33 2 -35 35 -35 33 0 35 -2 35 -35 0 -33 2 -35 35 -35 33 0 35 -2 35 -35 0
-33 2 -35 35 -35 33 0 35 -2 35 -35 0 -32 2 -35 30 -35 27 0 30 -3 30 -30 0
-28 3 -30 35 -30 33 0 35 -2 35 -35 0 -33 2 -35 35 -35 33 0 35 -2 35 -35 0
-33 2 -35 35 -35 33 0 35 -2 35 -35 0 -33 2 -35 35 -35 33 0 35 -2 35 -35 0
-32 2 -35 30 -35 l30 0 0 -65 0 -65 35 0 c33 0 35 -2 35 -35 0 -33 2 -35 35
-35 33 0 35 -2 35 -35 0 -33 2 -35 35 -35 33 0 35 -2 35 -35 0 -33 2 -35 35
-35 33 0 35 -2 35 -35 0 -32 2 -35 30 -35 27 0 30 -3 30 -30 0 -28 3 -30 35
-30 33 0 35 -2 35 -35 0 -33 2 -35 35 -35 33 0 35 -2 35 -35 0 -33 2 -35 35
-35 33 0 35 -2 35 -35 0 -33 2 -35 35 -35 33 0 35 -2 35 -35 0 -32 2 -35 30
-35 27 0 30 -3 30 -30 0 -28 3 -30 35 -30 33 0 35 -2 35 -35 0 -33 2 -35 35
-35 33 0 35 -2 35 -35 0 -33 2 -35 35 -35 33 0 35 -2 35 -35 0 -33 2 -35 35
-35 l35 0 0 -65 0 -65 30 0 c28 0 30 -3 30 -35 0 -33 2 -35 35 -35 l35 0 0
-70 0 -70 35 0 c33 0 35 -2 35 -35 0 -33 2 -35 35 -35 l35 0 0 -65 0 -65 35 0
35 0 0 -105 0 -105 30 0 30 0 0 -65 0 -65 35 0 35 0 0 -70 0 -70 70 0 70 0 0
105 0 105 35 0 35 0 0 65 0 65 35 0 35 0 0 70 0 70 30 0 30 0 0 65 0 65 35 0
35 0 0 70 0 70 35 0 35 0 0 70 0 70 35 0 c32 0 35 2 35 30 0 28 3 30 35 30 33
0 35 2 35 35 0 32 2 35 30 35 l30 0 0 70 0 70 35 0 c33 0 35 2 35 35 0 33 2
35 35 35 32 0 35 2 35 30 0 28 3 30 35 30 33 0 35 2 35 35 0 33 2 35 35 35 33
0 35 2 35 35 0 32 2 35 30 35 l30 0 0 70 0 70 -65 0 -65 0 0 -35 0 -35 -70 0
-70 0 0 -35 c0 -33 -2 -35 -35 -35 -33 0 -35 -2 -35 -35 0 -32 -2 -35 -30 -35
l-30 0 0 -65 0 -65 -35 0 c-33 0 -35 -2 -35 -35 0 -33 -2 -35 -35 -35 -33 0
-35 -2 -35 -35 l0 -35 -70 0 -70 0 0 -35 c0 -32 -2 -35 -30 -35 l-30 0 0 -100
0 -100 -35 0 c-33 0 -35 -2 -35 -35 l0 -35 -70 0 -70 0 0 100 0 100 35 0 35 0
0 70 0 70 35 0 35 0 0 70 0 70 -35 0 -35 0 0 65 0 65 -35 0 -35 0 0 70 0 70
-35 0 -35 0 0 65 0 65 35 0 35 0 0 70 0 70 -35 0 -35 0 0 70 0 70 -35 0 c-32
0 -35 2 -35 30 0 27 -3 30 -30 30 l-30 0 0 70 0 70 30 0 30 0 0 70 0 70 70 0
70 0 0 -35 c0 -33 2 -35 35 -35 33 0 35 -2 35 -35 l0 -35 70 0 70 0 0 35 c0
33 -2 35 -35 35 -33 0 -35 2 -35 35 0 33 -2 35 -35 35 -33 0 -35 2 -35 35 0
33 -2 35 -35 35 -32 0 -35 2 -35 30 0 28 -3 30 -35 30 -33 0 -35 2 -35 35 0
33 -2 35 -35 35 l-35 0 0 70 0 70 -30 0 -30 0 0 170 0 170 30 0 c28 0 30 3 30
35 l0 35 70 0 70 0 0 -35 c0 -33 2 -35 35 -35 33 0 35 -2 35 -35 l0 -35 70 0
70 0 0 70 0 70 -35 0 c-32 0 -35 2 -35 30 0 28 -3 30 -35 30 l-35 0 0 240 0
240 35 0 c33 0 35 2 35 35 l0 35 100 0 100 0 0 -30 c0 -17 -5 -30 -12 -31 -10
0 -10 -2 0 -6 6 -2 12 -20 12 -39 0 -32 2 -34 35 -34 l35 0 0 205 0 205 35 0
c33 0 35 2 35 35 0 33 2 35 35 35 33 0 35 2 35 35 l0 35 65 0 65 0 0 30 c0 28
3 30 35 30 33 0 35 2 35 35 l0 35 100 0 100 0 0 -35 c0 -33 2 -35 35 -35 l35
0 0 -65 0 -65 35 0 35 0 0 -105 0 -105 100 0 100 0 0 -170 0 -170 -30 0 c-27
0 -30 -3 -30 -30 0 -28 -3 -30 -35 -30 -33 0 -35 -2 -35 -35 l0 -35 135 0 135
0 0 -35 c0 -33 2 -35 35 -35 l35 0 0 -70 0 -70 -35 0 -35 0 0 -100 0 -100 -35
0 -35 0 0 -70 0 -70 -35 0 c-32 0 -35 -2 -35 -30 0 -27 -3 -30 -30 -30 -28 0
-30 -3 -30 -35 0 -33 -2 -35 -35 -35 -33 0 -35 -2 -35 -35 0 -33 -2 -35 -35
-35 -33 0 -35 -2 -35 -35 0 -33 -2 -35 -35 -35 -33 0 -35 -2 -35 -35 l0 -35
70 0 70 0 0 35 0 35 100 0 100 0 0 -135 0 -135 -35 0 c-33 0 -35 -2 -35 -35 0
-32 -2 -35 -30 -35 -28 0 -30 -3 -30 -35 0 -33 -2 -35 -35 -35 -33 0 -35 -2
-35 -35 l0 -35 -70 0 -70 0 0 -30 0 -30 -65 0 -65 0 0 -35 c0 -33 -2 -35 -35
-35 -33 0 -35 -2 -35 -35 l0 -35 65 0 65 0 0 -100 0 -100 70 0 70 0 0 30 c0
28 3 30 35 30 33 0 35 2 35 35 0 33 2 35 35 35 33 0 35 2 35 35 0 32 2 35 30
35 28 0 30 3 30 35 l0 35 70 0 70 0 0 35 0 35 100 0 100 0 0 30 0 30 140 0
140 0 0 35 0 35 340 0 340 0 0 -35 c0 -32 2 -35 30 -35 27 0 30 -3 30 -30 l0
-30 -200 0 -200 0 0 -35 0 -35 -105 0 -105 0 0 -35 0 -35 -100 0 -100 0 0 -35
0 -35 -70 0 -70 0 0 -35 c0 -33 -2 -35 -35 -35 -32 0 -35 -2 -35 -30 l0 -30
-65 0 -65 0 0 -35 0 -35 -70 0 -70 0 0 -35 c0 -33 -2 -35 -35 -35 -33 0 -35
-2 -35 -35 0 -32 -2 -35 -30 -35 -28 0 -30 -3 -30 -35 0 -33 -2 -35 -35 -35
-32 0 -35 -2 -35 -30 0 -28 -3 -30 -35 -30 l-35 0 0 -70 0 -70 -35 0 -35 0 0
-70 0 -70 -35 0 c-32 0 -35 -2 -35 -30 0 -27 -3 -30 -30 -30 l-30 0 0 -70 0
-70 -35 0 -35 0 0 -100 0 -100 -35 0 -35 0 0 -70 0 -70 -35 0 -35 0 0 -70 0
-70 -35 0 -35 0 0 -100 0 -100 -30 0 -30 0 0 -100 0 -100 -35 0 -35 0 0 -105
0 -105 -35 0 -35 0 0 -100 0 -100 -35 0 -35 0 0 -105 0 -105 -35 0 -35 0 0
-100 0 -100 -30 0 -30 0 0 -135 0 -135 -35 0 -35 0 0 -105 0 -105 -35 0 -35 0
0 -100 0 -100 -35 0 -35 0 0 -100 0 -100 -35 0 -35 0 0 -70 0 -70 -35 0 -35 0
0 -100 0 -100 -30 0 -30 0 0 -70 0 -70 -35 0 -35 0 0 -70 0 -70 -35 0 -35 0 0
-65 0 -65 -35 0 c-33 0 -35 -2 -35 -35 l0 -35 -65 0 -65 0 0 70 0 70 30 0 30
0 0 200 0 200 35 0 35 0 0 445 0 445 -35 0 -35 0 0 205 0 205 -30 0 -30 0 0
135 0 135 -35 0 -35 0 0 100 0 100 -35 0 -35 0 0 70 0 70 -35 0 -35 0 0 100 0
100 -35 0 -35 0 0 70 0 70 -30 0 -30 0 0 65 0 65 -35 0 c-33 0 -35 2 -35 35 0
33 -2 35 -35 35 l-35 0 0 70 0 70 -35 0 c-33 0 -35 2 -35 35 0 33 -2 35 -35
35 l-35 0 0 65 0 65 -30 0 c-28 0 -30 3 -30 35 0 33 -2 35 -35 35 -33 0 -35 2
-35 35 0 33 -2 35 -35 35 -33 0 -35 2 -35 35 0 33 -2 35 -35 35 -32 0 -35 2
-35 30 0 28 -3 30 -35 30 -33 0 -35 2 -35 35 0 32 -2 35 -30 35 -28 0 -30 3
-30 35 0 33 -2 35 -35 35 -33 0 -35 2 -35 35 0 33 -2 35 -35 35 -33 0 -35 2
-35 35 0 33 -2 35 -35 35 -32 0 -35 2 -35 30 0 28 -3 30 -35 30 -33 0 -35 2
-35 35 0 32 -2 35 -30 35 -28 0 -30 3 -30 35 0 33 -2 35 -35 35 -33 0 -35 2
-35 35 0 33 -2 35 -35 35 -33 0 -35 2 -35 35 l0 35 -70 0 -70 0 0 30 c0 27 -3
30 -30 30 -28 0 -30 3 -30 35 l0 35 -70 0 -70 0 0 35 c0 33 -2 35 -35 35 -33
0 -35 2 -35 35 l0 35 -65 0 -65 0 0 35 0 35 -70 0 -70 0 0 30 0 30 -70 0 -70
0 0 35 0 35 -65 0 -65 0 0 35 0 35 -105 0 -105 0 0 35 0 35 -135 0 -135 0 0
35 0 35 -135 0 -135 0 0 35 0 35 -135 0 -135 0 0 30 0 30 -170 0 -170 0 0 35
0 35 -105 0 -105 0 0 35 0 35 -65 0 -65 0 0 35 0 35 -70 0 -70 0 0 35 c0 33
-2 35 -35 35 -32 0 -35 2 -35 30 0 27 -3 30 -30 30 -28 0 -30 3 -30 35 l0 35
-70 0 -70 0 0 35 c0 33 -2 35 -35 35 -33 0 -35 2 -35 35 0 33 -2 35 -35 35
-33 0 -35 2 -35 35 0 32 -2 35 -30 35 l-30 0 0 65 0 65 -35 0 c-33 0 -35 2
-35 35 0 33 -2 35 -35 35 -33 0 -35 2 -35 35 0 33 -2 35 -35 35 -33 0 -35 2
-35 35 0 33 -2 35 -35 35 l-35 0 0 65 0 65 -30 0 c-28 0 -30 3 -30 35 0 33 -2
35 -35 35 -33 0 -35 2 -35 35 l0 35 65 0 65 0 0 -35 c0 -33 2 -35 35 -35 33 0
35 -2 35 -35 0 -33 2 -35 35 -35 33 0 35 -2 35 -35 0 -33 2 -35 35 -35 32 0
35 -2 35 -30 0 -28 3 -30 35 -30 33 0 35 -2 35 -35 l0 -35 65 0 65 0 0 -35 0
-35 70 0 70 0 0 -35 0 -35 65 0 65 0 0 -35 0 -35 105 0 105 0 0 -30 0 -30 65
0 65 0 0 -35 0 -35 105 0 105 0 0 -35 0 -35 100 0 100 0 0 -35 0 -35 105 0
105 0 0 -35 0 -35 170 0 170 0 0 -30 0 -30 100 0 100 0 0 -35 0 -35 135 0 135
0 0 -35 0 -35 135 0 135 0 0 -35 0 -35 70 0 70 0 0 35 c0 33 -2 35 -35 35 -33
0 -35 2 -35 35 0 33 -2 35 -35 35 -33 0 -35 2 -35 35 0 32 -2 35 -30 35 -27 0
-30 3 -30 30 0 28 -3 30 -35 30 l-35 0 0 70 0 70 -35 0 c-33 0 -35 2 -35 35 0
33 -2 35 -35 35 -33 0 -35 2 -35 35 0 33 -2 35 -35 35 l-35 0 0 65 0 65 -30 0
-30 0 0 70 0 70 -35 0 -35 0 0 65 0 65 -35 0 c-33 0 -35 2 -35 35 0 33 -2 35
-35 35 l-35 0 0 105 0 105 -35 0 -35 0 0 65 0 65 -30 0 -30 0 0 205 0 205 -35
0 -35 0 0 410 0 410 35 0 35 0 0 65 0 65 30 0 30 0 0 -65z m-1360 -510 c0 -33
2 -35 35 -35 33 0 35 -2 35 -35 0 -33 2 -35 35 -35 33 0 35 -2 35 -35 0 -33 2
-35 35 -35 l35 0 0 70 0 70 100 0 100 0 0 -70 0 -70 35 0 c32 0 35 -2 35 -30
0 -28 3 -30 35 -30 l35 0 0 -105 0 -105 35 0 c33 0 35 2 35 35 l0 35 100 0
100 0 0 -70 0 -70 35 0 35 0 0 -170 0 -170 65 0 65 0 0 -30 c0 -28 3 -30 35
-30 l35 0 0 -70 0 -70 -35 0 -35 0 0 -70 0 -70 35 0 35 0 0 -100 0 -100 35 0
35 0 0 -70 0 -70 35 0 35 0 0 -100 0 -100 -35 0 c-33 0 -35 2 -35 35 0 33 -2
35 -35 35 -33 0 -35 2 -35 35 0 33 -2 35 -35 35 -32 0 -35 2 -35 30 l0 30
-135 0 -135 0 0 35 c0 33 -2 35 -35 35 -33 0 -35 2 -35 35 l0 35 -135 0 -135
0 0 35 c0 33 -2 35 -35 35 l-35 0 0 65 0 65 -65 0 -65 0 0 -30 0 -30 -70 0
-70 0 0 30 0 30 -65 0 -65 0 0 35 c0 33 -2 35 -35 35 l-35 0 0 70 0 70 35 0
c33 0 35 2 35 35 0 33 -2 35 -35 35 -32 0 -35 2 -35 30 l0 30 -70 0 -70 0 0
35 0 35 -65 0 -65 0 0 70 0 70 30 0 30 0 0 65 0 65 -30 0 c-28 0 -30 3 -30 35
0 33 -2 35 -35 35 l-35 0 0 170 0 170 35 0 c33 0 35 2 35 35 l0 35 170 0 170
0 0 35 c0 32 2 35 30 35 28 0 30 -3 30 -35z m7690 -610 c0 -33 2 -35 35 -35
l35 0 0 -70 0 -70 -35 0 c-33 0 -35 -2 -35 -35 0 -33 2 -35 35 -35 32 0 35 -2
35 -30 0 -28 3 -30 35 -30 l35 0 0 -70 0 -70 -35 0 c-33 0 -35 -2 -35 -35 0
-33 -2 -35 -35 -35 -33 0 -35 -2 -35 -35 l0 -35 70 0 70 0 0 -100 0 -100 -35
0 -35 0 0 -70 0 -70 -35 0 c-32 0 -35 -2 -35 -30 l0 -30 -70 0 -70 0 0 -70 0
-70 35 0 35 0 0 -70 0 -70 -35 0 c-32 0 -35 -2 -35 -30 l0 -30 -65 0 -65 0 0
-35 0 -35 -105 0 -105 0 0 -105 0 -105 -135 0 -135 0 0 -30 c0 -28 -3 -30 -35
-30 -33 0 -35 -2 -35 -35 l0 -35 -100 0 -100 0 0 -35 c0 -33 -2 -35 -35 -35
-33 0 -35 -2 -35 -35 0 -33 -2 -35 -35 -35 -33 0 -35 -2 -35 -35 l0 -35 -65 0
-65 0 0 70 0 70 35 0 c33 0 35 2 35 35 0 32 2 35 30 35 l30 0 0 205 0 205 35
0 35 0 0 65 0 65 -35 0 -35 0 0 70 0 70 35 0 c33 0 35 2 35 35 l0 35 70 0 70
0 0 65 0 65 -35 0 -35 0 0 170 0 170 35 0 c33 0 35 2 35 35 0 33 2 35 35 35
33 0 35 -2 35 -35 l0 -35 65 0 65 0 0 135 0 135 35 0 c33 0 35 2 35 35 l0 35
70 0 70 0 0 -35 c0 -32 2 -35 30 -35 28 0 30 3 30 35 0 33 2 35 35 35 l35 0 0
70 0 70 35 0 c33 0 35 2 35 35 l0 35 170 0 170 0 0 -35z m2920 -820 c0 -33 2
-35 35 -35 l35 0 0 -100 0 -100 70 0 70 0 0 -105 0 -105 -35 0 c-32 0 -35 -2
-35 -30 0 -28 3 -30 35 -30 33 0 35 -2 35 -35 0 -33 2 -35 35 -35 33 0 35 -2
35 -35 0 -33 2 -35 35 -35 33 0 35 -2 35 -35 0 -33 -2 -35 -35 -35 l-35 0 0
-65 0 -65 -35 0 -35 0 0 -70 0 -70 -70 0 -70 0 0 -70 0 -70 35 0 c33 0 35 -2
35 -35 0 -33 2 -35 35 -35 32 0 35 -2 35 -30 0 -28 -3 -30 -35 -30 -33 0 -35
-2 -35 -35 0 -33 -2 -35 -35 -35 -33 0 -35 -2 -35 -35 0 -33 -2 -35 -35 -35
-33 0 -35 -2 -35 -35 l0 -35 -100 0 -100 0 0 -65 0 -65 35 0 c33 0 35 -2 35
-35 0 -33 -2 -35 -35 -35 -33 0 -35 -2 -35 -35 0 -33 -2 -35 -35 -35 -33 0
-35 -2 -35 -35 l0 -35 -65 0 -65 0 0 -35 c0 -33 -2 -35 -35 -35 -32 0 -35 -2
-35 -30 l0 -30 -70 0 -70 0 0 -35 c0 -33 -2 -35 -35 -35 l-35 0 0 -70 0 -70
-30 0 c-28 0 -30 -3 -30 -35 l0 -35 -70 0 -70 0 0 105 0 105 35 0 35 0 0 100
0 100 -35 0 -35 0 0 105 0 105 35 0 35 0 0 65 0 65 -35 0 c-33 0 -35 2 -35 35
0 33 -2 35 -35 35 l-35 0 0 70 0 70 35 0 c32 0 35 2 35 30 l0 30 70 0 70 0 0
35 c0 33 -2 35 -35 35 -33 0 -35 2 -35 35 0 33 -2 35 -35 35 l-35 0 0 205 0
205 70 0 70 0 0 -35 c0 -32 2 -35 30 -35 l30 0 0 205 0 205 35 0 c33 0 35 2
35 35 0 33 2 35 35 35 33 0 35 -2 35 -35 l0 -35 70 0 70 0 0 100 0 100 30 0
c28 0 30 3 30 35 l0 35 70 0 70 0 0 35 0 35 100 0 100 0 0 -35z m-5930 -390
c0 -8 -9 -15 -19 -15 -12 0 -21 -8 -24 -22 -3 -14 -5 -9 -6 15 -1 33 2 37 24
37 16 0 25 -6 25 -15z m-7260 -150 l0 -35 100 0 100 0 0 35 c0 33 2 35 35 35
33 0 35 -2 35 -35 0 -33 2 -35 35 -35 33 0 35 -2 35 -35 0 -33 2 -35 35 -35
33 0 35 -2 35 -35 0 -32 2 -35 30 -35 l30 0 0 70 0 70 70 0 70 0 0 -35 c0 -33
2 -35 35 -35 33 0 35 -2 35 -35 0 -33 2 -35 35 -35 l35 0 0 -100 0 -100 30 0
c28 0 30 -3 30 -35 0 -33 2 -35 35 -35 33 0 35 2 35 35 l0 35 70 0 70 0 0 -35
c0 -33 2 -35 35 -35 l35 0 0 -170 0 -170 30 0 c28 0 30 -3 30 -35 0 -33 2 -35
35 -35 l35 0 0 -170 0 -170 35 0 35 0 0 -135 0 -135 35 0 35 0 0 -105 0 -105
70 0 70 0 0 -30 0 -30 100 0 100 0 0 100 0 100 -35 0 -35 0 0 170 0 170 -35 0
-35 0 0 305 0 305 35 0 35 0 0 140 0 140 35 0 35 0 0 65 0 65 35 0 c33 0 35 2
35 35 0 33 2 35 35 35 33 0 35 2 35 35 0 32 2 35 30 35 l30 0 0 -70 0 -70 -30
0 -30 0 0 -205 0 -205 30 0 30 0 0 -170 0 -170 35 0 35 0 0 -100 0 -100 35 0
35 0 0 -70 0 -70 35 0 35 0 0 -100 0 -100 35 0 35 0 0 -70 0 -70 30 0 30 0 0
-65 0 -65 35 0 c33 0 35 -2 35 -35 0 -33 2 -35 35 -35 l35 0 0 -70 0 -70 35 0
c33 0 35 -2 35 -35 0 -33 2 -35 35 -35 l35 0 0 -65 0 -65 30 0 c28 0 30 -3 30
-35 0 -33 2 -35 35 -35 l35 0 0 -70 0 -70 35 0 c32 0 35 -2 35 -30 0 -28 3
-30 35 -30 l35 0 0 135 0 135 -70 0 -70 0 0 100 0 100 -35 0 c-33 0 -35 2 -35
35 0 32 -2 35 -30 35 -28 0 -30 3 -30 35 0 33 -2 35 -35 35 l-35 0 0 65 0 65
35 0 c33 0 35 2 35 35 0 33 -2 35 -35 35 -33 0 -35 2 -35 35 0 33 -2 35 -35
35 -33 0 -35 2 -35 35 0 33 -2 35 -35 35 -33 0 -35 2 -35 35 0 33 -2 35 -35
35 l-35 0 0 65 0 65 35 0 c33 0 35 2 35 35 l0 35 70 0 70 0 0 35 c0 33 -2 35
-35 35 -33 0 -35 2 -35 35 0 33 -2 35 -35 35 l-35 0 0 100 0 100 35 0 c33 0
35 2 35 35 0 33 2 35 35 35 l35 0 0 135 0 135 35 0 c33 0 35 2 35 35 0 32 2
35 30 35 28 0 30 3 30 35 l0 35 105 0 105 0 0 -35 c0 -33 2 -35 35 -35 33 0
35 -2 35 -35 l0 -35 65 0 65 0 0 -35 c0 -33 2 -35 35 -35 l35 0 0 -65 0 -65
70 0 70 0 0 -70 0 -70 30 0 30 0 0 -100 0 -100 -30 0 -30 0 0 -105 0 -105 65
0 65 0 0 -100 0 -100 -35 0 -35 0 0 -70 0 -70 -65 0 -65 0 0 -65 0 -65 35 0
35 0 0 -105 0 -105 -35 0 c-33 0 -35 -2 -35 -35 0 -33 -2 -35 -35 -35 l-35 0
0 -65 0 -65 -35 0 c-33 0 -35 -2 -35 -35 0 -33 -2 -35 -35 -35 l-35 0 0 -135
0 -135 -65 0 -65 0 0 -35 c0 -33 2 -35 35 -35 33 0 35 -2 35 -35 0 -32 2 -35
30 -35 28 0 30 -3 30 -35 0 -33 2 -35 35 -35 l35 0 0 -65 0 -65 35 0 35 0 0
-70 0 -70 35 0 c33 0 35 -2 35 -35 0 -33 2 -35 35 -35 l35 0 0 -65 0 -65 30 0
c28 0 30 -3 30 -35 0 -32 -2 -35 -30 -35 -28 0 -30 -3 -30 -35 0 -33 -2 -35
-35 -35 -33 0 -35 2 -35 35 0 33 -2 35 -35 35 -33 0 -35 2 -35 35 l0 35 -70 0
-70 0 0 35 c0 32 -2 35 -30 35 -27 0 -30 3 -30 30 0 28 -3 30 -35 30 -33 0
-35 2 -35 35 0 33 -2 35 -35 35 -33 0 -35 2 -35 35 l0 35 -70 0 -70 0 0 35 c0
32 -2 35 -30 35 -28 0 -30 3 -30 35 0 33 -2 35 -35 35 -32 0 -35 2 -35 30 0
28 -3 30 -35 30 -33 0 -35 2 -35 35 0 33 -2 35 -35 35 -33 0 -35 2 -35 35 0
33 -2 35 -35 35 -33 0 -35 2 -35 35 0 32 -2 35 -30 35 -28 0 -30 3 -30 35 l0
35 -70 0 -70 0 0 30 0 30 -70 0 -70 0 0 35 0 35 -65 0 -65 0 0 35 0 35 -105 0
-105 0 0 35 0 35 -100 0 -100 0 0 35 0 35 -135 0 -135 0 0 30 0 30 -170 0
-170 0 0 35 0 35 -680 0 -680 0 0 -65 0 -65 65 0 65 0 0 -35 0 -35 70 0 70 0
0 35 c0 33 2 35 35 35 32 0 35 2 35 30 l0 30 65 0 65 0 0 -30 0 -30 70 0 70 0
0 -35 0 -35 170 0 170 0 0 -35 0 -35 65 0 65 0 0 35 0 35 105 0 105 0 0 -70 0
-70 -35 0 c-33 0 -35 -2 -35 -35 l0 -35 -135 0 -135 0 0 -65 0 -65 -35 0 -35
0 0 -70 0 -70 -70 0 -70 0 0 -35 c0 -32 -2 -35 -30 -35 l-30 0 0 -65 0 -65
-35 0 c-33 0 -35 -2 -35 -35 0 -33 -2 -35 -35 -35 -33 0 -35 -2 -35 -35 0 -33
-2 -35 -35 -35 -33 0 -35 2 -35 35 0 33 -2 35 -35 35 -33 0 -35 2 -35 35 0 32
-2 35 -30 35 l-30 0 0 -135 0 -135 -35 0 c-33 0 -35 -2 -35 -35 0 -33 -2 -35
-35 -35 -33 0 -35 -2 -35 -35 0 -33 -2 -35 -35 -35 -33 0 -35 -2 -35 -35 l0
-35 -65 0 -65 0 0 35 c0 33 -2 35 -35 35 -33 0 -35 2 -35 35 0 33 -2 35 -35
35 -33 0 -35 -2 -35 -35 0 -33 -2 -35 -35 -35 -33 0 -35 -2 -35 -35 0 -33 -2
-35 -35 -35 -33 0 -35 -2 -35 -35 l0 -35 -100 0 -100 0 0 35 c0 33 -2 35 -35
35 -33 0 -35 2 -35 35 0 33 -2 35 -35 35 -33 0 -35 -2 -35 -35 l0 -35 -135 0
-135 0 0 35 0 35 -100 0 -100 0 0 35 c0 33 -2 35 -35 35 l-35 0 0 65 0 65 35
0 c33 0 35 2 35 35 0 33 2 35 35 35 33 0 35 2 35 35 0 32 2 35 30 35 28 0 30
3 30 35 0 32 -2 35 -30 35 l-30 0 0 65 0 65 30 0 c28 0 30 3 30 35 l0 35 105
0 105 0 0 35 c0 33 -2 35 -35 35 l-35 0 0 100 0 100 70 0 70 0 0 35 0 35 200
0 200 0 0 105 0 105 35 0 c32 0 35 2 35 30 l0 30 -100 0 -100 0 0 -30 0 -30
-170 0 -170 0 0 -35 0 -35 -70 0 -70 0 0 -35 0 -35 -135 0 -135 0 0 35 c0 33
2 35 35 35 33 0 35 2 35 35 l0 35 65 0 65 0 0 30 c0 28 3 30 35 30 33 0 35 2
35 35 l0 35 70 0 70 0 0 35 0 35 65 0 65 0 0 35 0 35 105 0 105 0 0 35 0 35
65 0 65 0 0 30 0 30 140 0 140 0 0 35 0 35 170 0 170 0 0 35 0 35 -70 0 -70 0
0 35 0 35 -100 0 -100 0 0 35 0 35 -70 0 -70 0 0 30 0 30 -70 0 -70 0 0 35 0
35 -65 0 -65 0 0 35 c0 33 -2 35 -35 35 -33 0 -35 2 -35 35 0 33 -2 35 -35 35
-33 0 -35 2 -35 35 0 33 -2 35 -35 35 -32 0 -35 2 -35 30 0 27 -3 30 -30 30
l-30 0 0 70 0 70 -35 0 c-33 0 -35 2 -35 35 0 33 -2 35 -35 35 l-35 0 0 100 0
100 70 0 70 0 0 -65 0 -65 30 0 c28 0 30 -3 30 -35 0 -33 2 -35 35 -35 33 0
35 -2 35 -35 0 -33 2 -35 35 -35 33 0 35 -2 35 -35 l0 -35 70 0 70 0 0 -35 c0
-32 2 -35 30 -35 27 0 30 -3 30 -30 l0 -30 70 0 70 0 0 -35 0 -35 70 0 70 0 0
-35 0 -35 100 0 100 0 0 -35 0 -35 100 0 100 0 0 -35 0 -35 140 0 140 0 0 -30
0 -30 170 0 170 0 0 -35 0 -35 170 0 170 0 0 -35 0 -35 100 0 100 0 0 -35 0
-35 135 0 135 0 0 35 c0 33 -2 35 -35 35 l-35 0 0 70 0 70 -135 0 -135 0 0 30
0 30 -135 0 -135 0 0 35 c0 33 -2 35 -35 35 l-35 0 0 70 0 70 -170 0 -170 0 0
35 c0 33 -2 35 -35 35 l-35 0 0 65 0 65 35 0 35 0 0 70 0 70 -100 0 -100 0 0
35 c0 33 -2 35 -35 35 l-35 0 0 65 0 65 35 0 35 0 0 70 0 70 -70 0 -70 0 0
205 0 205 35 0 c33 0 35 2 35 35 0 33 2 35 35 35 33 0 35 -2 35 -35z m14560
-380 l0 -205 -35 0 -35 0 0 -65 0 -65 35 0 c33 0 35 -2 35 -35 0 -33 -2 -35
-35 -35 -33 0 -35 -2 -35 -35 0 -33 -2 -35 -35 -35 -33 0 -35 -2 -35 -35 0
-33 -2 -35 -35 -35 -33 0 -35 -2 -35 -35 l0 -35 -65 0 -65 0 0 -30 c0 -27 3
-30 30 -30 28 0 30 -3 30 -35 0 -32 -2 -35 -30 -35 -28 0 -30 -3 -30 -35 l0
-35 -140 0 -140 0 0 -35 c0 -32 -2 -35 -30 -35 -28 0 -30 -3 -30 -35 l0 -35
-170 0 -170 0 0 -30 0 -30 -105 0 -105 0 0 -35 0 -35 -70 0 -70 0 0 65 0 65
70 0 70 0 0 70 0 70 35 0 35 0 0 100 0 100 35 0 35 0 0 105 0 105 35 0 c33 0
35 2 35 35 0 32 2 35 30 35 l30 0 0 100 0 100 35 0 c33 0 35 2 35 35 l0 35
105 0 105 0 0 70 0 70 30 0 c27 0 30 3 30 30 l0 30 105 0 105 0 0 35 0 35 205
0 205 0 0 -205z m-2450 -170 l0 -305 -35 0 -35 0 0 -70 0 -70 -35 0 -35 0 0
-100 0 -100 -35 0 -35 0 0 -70 0 -70 -35 0 c-32 0 -35 -2 -35 -30 0 -27 -3
-30 -30 -30 l-30 0 0 -70 0 -70 -35 0 c-33 0 -35 -2 -35 -35 0 -33 -2 -35 -35
-35 -33 0 -35 -2 -35 -35 0 -33 -2 -35 -35 -35 l-35 0 0 -65 0 -65 -35 0 c-33
0 -35 -2 -35 -35 0 -32 -2 -35 -30 -35 -28 0 -30 -3 -30 -35 0 -33 -2 -35 -35
-35 -33 0 -35 -2 -35 -35 l0 -35 -70 0 -70 0 0 -65 0 -65 70 0 70 0 0 35 0 35
100 0 100 0 0 30 0 30 135 0 135 0 0 35 0 35 105 0 105 0 0 35 0 35 170 0 170
0 0 35 0 35 235 0 235 0 0 35 0 35 275 0 275 0 0 30 0 30 270 0 270 0 0 35 0
35 205 0 205 0 0 35 0 35 240 0 240 0 0 35 0 35 100 0 100 0 0 35 0 35 70 0
70 0 0 30 c0 28 3 30 35 30 33 0 35 2 35 35 l0 35 65 0 65 0 0 35 c0 33 2 35
35 35 33 0 35 2 35 35 0 33 2 35 35 35 33 0 35 2 35 35 l0 35 65 0 65 0 0 30
c0 28 3 30 35 30 33 0 35 2 35 35 0 33 2 35 35 35 33 0 35 2 35 35 0 33 2 35
35 35 33 0 35 2 35 35 0 33 2 35 35 35 33 0 35 2 35 35 0 32 2 35 30 35 27 0
30 3 30 30 0 28 3 30 35 30 l35 0 0 -65 0 -65 -35 0 -35 0 0 -70 0 -70 -30 0
-30 0 0 -65 0 -65 -35 0 c-33 0 -35 -2 -35 -35 0 -33 -2 -35 -35 -35 -33 0
-35 -2 -35 -35 0 -33 -2 -35 -35 -35 l-35 0 0 -70 0 -70 -35 0 c-32 0 -35 -2
-35 -30 0 -27 -3 -30 -30 -30 -28 0 -30 -3 -30 -35 0 -33 -2 -35 -35 -35 -33
0 -35 -2 -35 -35 0 -33 -2 -35 -35 -35 -33 0 -35 -2 -35 -35 l0 -35 -70 0 -70
0 0 -35 c0 -32 -2 -35 -30 -35 -27 0 -30 -3 -30 -30 0 -28 -3 -30 -35 -30 -33
0 -35 -2 -35 -35 l0 -35 -70 0 -70 0 0 -35 0 -35 -65 0 -65 0 0 -35 0 -35 -70
0 -70 0 0 -35 0 -35 -100 0 -100 0 0 -30 0 -30 -170 0 -170 0 0 -35 0 -35
-375 0 -375 0 0 -35 0 -35 -205 0 -205 0 0 -35 0 -35 -135 0 -135 0 0 -35 0
-35 -140 0 -140 0 0 -30 0 -30 -100 0 -100 0 0 -35 0 -35 -100 0 -100 0 0 -35
0 -35 -140 0 -140 0 0 -35 0 -35 -135 0 -135 0 0 -35 0 -35 -100 0 -100 0 0
-30 0 -30 -105 0 -105 0 0 -35 0 -35 -65 0 -65 0 0 -35 0 -35 -70 0 -70 0 0
-35 0 -35 -65 0 -65 0 0 -35 0 -35 -70 0 -70 0 0 -30 0 -30 -70 0 -70 0 0 -35
c0 -32 -2 -35 -30 -35 -28 0 -30 -3 -30 -35 l0 -35 -70 0 -70 0 0 -35 0 -35
-70 0 -70 0 0 -35 c0 -32 -2 -35 -30 -35 -27 0 -30 -3 -30 -30 0 -28 -3 -30
-35 -30 -33 0 -35 -2 -35 -35 l0 -35 -70 0 -70 0 0 -35 c0 -33 -2 -35 -35 -35
-33 0 -35 -2 -35 -35 0 -32 -2 -35 -30 -35 -28 0 -30 -3 -30 -35 0 -33 -2 -35
-35 -35 -32 0 -35 -2 -35 -30 0 -28 -3 -30 -35 -30 -33 0 -35 -2 -35 -35 0
-33 -2 -35 -35 -35 -33 0 -35 -2 -35 -35 0 -33 -2 -35 -35 -35 -33 0 -35 -2
-35 -35 0 -32 -2 -35 -30 -35 -28 0 -30 -3 -30 -35 0 -33 -2 -35 -35 -35 l-35
0 0 -65 0 -65 -35 0 c-33 0 -35 -2 -35 -35 0 -33 -2 -35 -35 -35 l-35 0 0 -70
0 -70 -35 0 c-32 0 -35 -2 -35 -30 0 -27 -3 -30 -30 -30 -28 0 -30 -3 -30 -35
0 -33 -2 -35 -35 -35 l-35 0 0 -70 0 -70 -35 0 c-33 0 -35 -2 -35 -35 0 -33
-2 -35 -35 -35 l-35 0 0 -65 0 -65 -35 0 c-33 0 -35 -2 -35 -35 0 -32 -2 -35
-30 -35 l-30 0 0 -100 0 -100 -35 0 c-33 0 -35 -2 -35 -35 0 -33 -2 -35 -35
-35 -33 0 -35 -2 -35 -35 0 -33 -2 -35 -35 -35 l-35 0 0 -70 0 -70 -35 0 c-34
0 -35 -1 -35 -40 0 -38 -2 -40 -30 -40 l-30 0 0 -60 0 -60 -35 0 -35 0 0 -70
0 -70 -35 0 -35 0 0 -65 0 -65 -35 0 c-33 0 -35 -2 -35 -35 0 -33 -2 -35 -35
-35 -33 0 -35 -2 -35 -35 0 -32 -2 -35 -30 -35 l-30 0 0 70 0 70 30 0 30 0 0
65 0 65 35 0 35 0 0 140 0 140 35 0 35 0 0 65 0 65 35 0 35 0 0 105 0 105 35
0 35 0 0 65 0 65 30 0 30 0 0 70 0 70 35 0 35 0 0 65 0 65 35 0 35 0 0 70 0
70 35 0 35 0 0 70 0 70 35 0 35 0 0 65 0 65 30 0 30 0 0 70 0 70 35 0 c33 0
35 2 35 35 0 33 2 35 35 35 l35 0 0 65 0 65 35 0 c33 0 35 2 35 35 0 33 2 35
35 35 31 0 35 3 35 25 0 18 -5 25 -20 25 -13 0 -20 -7 -20 -20 0 -11 -7 -20
-15 -20 -10 0 -15 10 -15 30 0 28 3 30 35 30 33 0 35 2 35 35 0 32 2 35 30 35
l30 0 0 65 0 65 35 0 c33 0 35 2 35 35 0 33 2 35 35 35 33 0 35 2 35 35 0 33
2 35 35 35 l35 0 0 65 0 65 35 0 c33 0 35 2 35 35 0 32 2 35 30 35 28 0 30 3
30 35 0 33 2 35 35 35 l35 0 0 70 0 70 35 0 c32 0 35 2 35 30 0 28 3 30 35 30
33 0 35 2 35 35 0 33 2 35 35 35 33 0 35 2 35 35 0 32 2 35 30 35 l30 0 0 70
0 70 35 0 c32 0 35 2 35 30 0 28 3 30 35 30 33 0 35 2 35 35 0 33 2 35 35 35
33 0 35 2 35 35 0 33 2 35 35 35 33 0 35 2 35 35 0 32 2 35 30 35 28 0 30 3
30 35 0 33 2 35 35 35 32 0 35 2 35 30 0 28 3 30 35 30 33 0 35 2 35 35 0 33
2 35 35 35 33 0 35 2 35 35 0 33 2 35 35 35 33 0 35 2 35 35 0 32 2 35 30 35
28 0 30 3 30 35 0 33 2 35 35 35 32 0 35 2 35 30 0 28 3 30 35 30 33 0 35 2
35 35 0 33 2 35 35 35 33 0 35 2 35 35 0 33 2 35 35 35 33 0 35 2 35 35 0 32
2 35 30 35 28 0 30 3 30 35 0 33 2 35 35 35 32 0 35 2 35 30 l0 30 70 0 70 0
0 35 c0 33 2 35 35 35 33 0 35 2 35 35 0 32 2 35 30 35 28 0 30 3 30 35 0 33
2 35 35 35 33 0 35 2 35 35 l0 35 70 0 70 0 0 30 c0 28 3 30 35 30 33 0 35 2
35 35 0 32 2 35 30 35 28 0 30 3 30 35 0 33 2 35 35 35 33 0 35 2 35 35 0 33
2 35 35 35 l35 0 0 65 0 65 35 0 c33 0 35 2 35 35 0 33 2 35 35 35 l35 0 0 70
0 70 30 0 30 0 0 65 0 65 35 0 35 0 0 105 0 105 35 0 35 0 0 100 0 100 70 0
70 0 0 -305z m-12220 -70 c0 -24 -5 -35 -15 -35 -10 0 -15 11 -15 35 0 24 5
35 15 35 10 0 15 -11 15 -35z m10180 -540 c0 -32 2 -35 30 -35 28 0 30 -3 30
-35 0 -33 2 -35 35 -35 33 0 35 2 35 35 l0 35 105 0 105 0 0 -35 0 -35 65 0
65 0 0 -35 c0 -33 2 -35 35 -35 l35 0 0 -65 0 -65 -35 0 c-33 0 -35 -2 -35
-35 0 -33 -2 -35 -35 -35 l-35 0 0 -100 0 -100 -30 0 c-28 0 -30 -3 -30 -35 0
-33 -2 -35 -35 -35 l-35 0 0 -70 0 -70 -35 0 c-33 0 -35 -2 -35 -35 l0 -35
-205 0 -205 0 0 -100 0 -100 -135 0 -135 0 0 35 c0 33 -2 35 -35 35 -33 0 -35
2 -35 35 l0 35 -65 0 -65 0 0 -70 0 -70 -70 0 -70 0 0 35 0 35 -70 0 -70 0 0
35 0 35 -100 0 -100 0 0 30 0 30 -70 0 -70 0 0 -30 0 -30 -65 0 -65 0 0 65 0
65 65 0 65 0 0 35 0 35 70 0 70 0 0 70 0 70 35 0 c32 0 35 2 35 30 l0 30 65 0
65 0 0 70 0 70 35 0 c33 0 35 2 35 35 l0 35 70 0 70 0 0 -35 c0 -33 2 -35 35
-35 l35 0 0 70 0 70 30 0 30 0 0 65 0 65 35 0 c33 0 35 2 35 35 l0 35 70 0 70
0 0 -35 c0 -33 2 -35 35 -35 33 0 35 -2 35 -35 0 -32 2 -35 30 -35 28 0 30 3
30 35 0 33 2 35 35 35 33 0 35 2 35 35 0 33 2 35 35 35 33 0 35 2 35 35 l0 35
70 0 70 0 0 -35z m-6530 -950 c0 -32 2 -35 30 -35 28 0 30 -3 30 -35 l0 -35
70 0 70 0 0 -35 c0 -33 2 -35 35 -35 33 0 35 -2 35 -35 0 -33 2 -35 35 -35 32
0 35 -2 35 -30 0 -27 3 -30 30 -30 28 0 30 -3 30 -35 0 -33 2 -35 35 -35 33 0
35 -2 35 -35 0 -33 2 -35 35 -35 33 0 35 -2 35 -35 0 -33 2 -35 35 -35 33 0
35 -2 35 -35 0 -33 2 -35 35 -35 32 0 35 -2 35 -30 0 -27 3 -30 30 -30 28 0
30 -3 30 -35 0 -33 2 -35 35 -35 33 0 35 -2 35 -35 0 -33 2 -35 35 -35 33 0
35 -2 35 -35 0 -33 2 -35 35 -35 33 0 35 -2 35 -35 0 -33 2 -35 35 -35 32 0
35 -2 35 -30 0 -27 3 -30 30 -30 28 0 30 -3 30 -35 0 -33 2 -35 35 -35 33 0
35 -2 35 -35 0 -33 2 -35 35 -35 33 0 35 -2 35 -35 0 -33 2 -35 35 -35 l35 0
0 -65 0 -65 35 0 c33 0 35 -2 35 -35 0 -32 2 -35 30 -35 28 0 30 -3 30 -35 0
-33 2 -35 35 -35 33 0 35 -2 35 -35 0 -33 2 -35 35 -35 33 0 35 -2 35 -35 0
-33 2 -35 35 -35 32 0 35 -2 35 -30 0 -28 3 -30 35 -30 33 0 35 -2 35 -35 0
-32 2 -35 30 -35 28 0 30 -3 30 -35 l0 -35 70 0 70 0 0 -35 c0 -33 2 -35 35
-35 33 0 35 -2 35 -35 0 -33 2 -35 35 -35 32 0 35 -2 35 -30 l0 -30 65 0 65 0
0 -35 0 -35 105 0 105 0 0 610 0 610 30 0 30 0 0 105 0 105 35 0 35 0 0 65 0
65 35 0 c33 0 35 2 35 35 0 33 2 35 35 35 33 0 35 2 35 35 l0 35 135 0 135 0
0 -445 0 -445 35 0 35 0 0 -170 0 -170 35 0 35 0 0 -170 0 -170 30 0 30 0 0
-100 0 -100 35 0 35 0 0 -205 0 -205 35 0 35 0 0 -270 0 -270 35 0 35 0 0
-135 0 -135 -35 0 -35 0 0 -105 0 -105 -35 0 -35 0 0 -65 0 -65 -35 0 -35 0 0
-70 0 -70 -30 0 -30 0 0 -70 0 -70 -35 0 -35 0 0 -65 0 -65 -35 0 -35 0 0 -70
0 -70 -35 0 -35 0 0 -65 0 -65 -35 0 -35 0 0 -70 0 -70 35 0 35 0 0 -305 0
-305 35 0 35 0 0 -375 0 -375 35 0 35 0 0 -375 0 -375 35 0 35 0 0 -610 0
-610 30 0 30 0 0 -445 0 -445 35 0 35 0 -1 -362 c-1 -200 -4 -353 -6 -340 -3
17 -11 22 -34 22 -27 0 -29 -3 -29 -35 l0 -35 -575 0 -575 0 0 -30 0 -30 -205
0 -205 0 0 540 0 540 35 0 35 0 2 683 c0 375 3 667 5 650 4 -29 8 -33 34 -33
l29 0 0 610 0 610 30 0 30 0 0 440 0 440 -30 0 -30 0 0 205 0 205 -35 0 c-33
0 -35 2 -35 35 0 33 -2 35 -35 35 -33 0 -35 2 -35 35 0 33 -2 35 -35 35 -33 0
-35 2 -35 35 l0 35 -65 0 -65 0 0 35 c0 33 -2 35 -35 35 -32 0 -35 2 -35 30
l0 30 -70 0 -70 0 0 35 0 35 -65 0 -65 0 0 35 c0 33 -2 35 -35 35 -33 0 -35 2
-35 35 l0 35 -70 0 -70 0 0 35 c0 33 -2 35 -35 35 -32 0 -35 2 -35 30 l0 30
-100 0 -100 0 0 35 0 35 -240 0 -240 0 0 35 0 35 -610 0 -610 0 0 35 0 35
-100 0 -100 0 0 35 c0 33 -2 35 -35 35 -32 0 -35 2 -35 30 0 28 -3 30 -35 30
l-35 0 0 105 0 105 35 0 c33 0 35 2 35 35 0 33 2 35 35 35 32 0 35 2 35 30 l0
30 270 0 270 0 0 -30 0 -30 100 0 100 0 0 30 0 30 410 0 410 0 0 65 c0 37 4
65 10 65 6 0 10 -9 10 -20 0 -13 7 -20 19 -20 11 0 22 -6 24 -12 3 -7 6 4 6
25 1 36 0 37 -34 37 -33 0 -35 2 -35 35 l0 35 -135 0 -135 0 0 35 0 35 -105 0
-105 0 0 30 0 30 -100 0 -100 0 0 35 0 35 -100 0 -100 0 0 35 0 35 -105 0
-105 0 0 35 0 35 -65 0 -65 0 0 35 0 35 -105 0 -105 0 0 30 0 30 -100 0 -100
0 0 35 0 35 -70 0 -70 0 0 35 0 35 -65 0 -65 0 0 35 c0 33 -2 35 -35 35 -33 0
-35 2 -35 35 0 33 -2 35 -35 35 l-35 0 0 100 0 100 35 0 c33 0 35 2 35 35 0
33 2 35 35 35 33 0 35 2 35 35 l0 35 170 0 170 0 0 -35 0 -35 65 0 65 0 0 -35
0 -35 70 0 70 0 0 -35 0 -35 135 0 135 0 0 -35 0 -35 135 0 135 0 0 -30 0 -30
135 0 135 0 0 -35 0 -35 140 0 140 0 0 -35 0 -35 100 0 100 0 0 -35 0 -35 70
0 70 0 0 70 0 70 -70 0 -70 0 0 35 0 35 -70 0 -70 0 0 30 0 30 -65 0 -65 0 0
35 0 35 -70 0 -70 0 0 35 0 35 -65 0 -65 0 0 35 0 35 -70 0 -70 0 0 35 0 35
-70 0 -70 0 0 30 c0 27 -3 30 -30 30 -28 0 -30 3 -30 35 l0 35 -70 0 -70 0 0
35 0 35 -70 0 -70 0 0 35 0 35 -65 0 -65 0 0 35 0 35 -105 0 -105 0 0 30 0 30
-65 0 -65 0 0 35 c0 33 -2 35 -35 35 -33 0 -35 2 -35 35 0 33 -2 35 -35 35
l-35 0 0 135 0 135 35 0 c33 0 35 2 35 35 0 33 2 35 35 35 33 0 35 2 35 35 l0
35 135 0 135 0 0 -35 0 -35 88 -1 c48 -1 79 -3 70 -6 -12 -3 -18 -14 -18 -34
l0 -29 65 0 65 0 0 -35 0 -35 105 0 105 0 0 -30 0 -30 100 0 100 0 0 -35 0
-35 70 0 70 0 0 -35 0 -35 65 0 65 0 0 -35 0 -35 105 0 105 0 0 -35 0 -35 65
0 65 0 0 -30 0 -30 70 0 70 0 0 -35 0 -35 65 0 65 0 0 -35 0 -35 70 0 70 0 0
-35 c0 -33 2 -35 35 -35 33 0 35 -2 35 -35 l0 -35 100 0 100 0 0 140 0 140
-35 0 c-32 0 -35 2 -35 30 0 27 -3 30 -30 30 -28 0 -30 3 -30 35 0 33 -2 35
-35 35 -33 0 -35 2 -35 35 0 33 -2 35 -35 35 l-35 0 0 70 0 70 -35 0 c-32 0
-35 2 -35 30 0 28 -3 30 -35 30 -33 0 -35 2 -35 35 0 32 -2 35 -30 35 l-30 0
0 70 0 70 -35 0 c-33 0 -35 2 -35 35 0 33 -2 35 -35 35 -32 0 -35 2 -35 30 0
28 -3 30 -35 30 -33 0 -35 2 -35 35 0 33 -2 35 -35 35 -33 0 -35 2 -35 35 0
32 -2 35 -30 35 -28 0 -30 3 -30 35 0 33 -2 35 -35 35 -33 0 -35 2 -35 35 0
33 -2 35 -35 35 -32 0 -35 2 -35 30 0 28 -3 30 -35 30 l-35 0 0 70 0 70 -35 0
c-33 0 -35 2 -35 35 0 32 -2 35 -30 35 l-30 0 0 65 0 65 -35 0 -35 0 0 70 0
70 35 0 c33 0 35 2 35 35 0 32 2 35 30 35 28 0 30 3 30 35 l0 35 140 0 140 0
0 -35z m10270 -140 c0 -33 2 -35 35 -35 l35 0 0 -100 0 -100 -35 0 c-33 0 -35
-2 -35 -35 0 -33 -2 -35 -35 -35 l-35 0 0 -70 0 -70 70 0 70 0 0 35 c0 32 2
35 30 35 28 0 30 3 30 35 0 33 2 35 35 35 33 0 35 2 35 35 0 33 2 35 35 35 33
0 35 2 35 35 l0 35 70 0 70 0 0 30 0 30 170 0 170 0 0 -30 c0 -27 3 -30 30
-30 l30 0 0 -105 0 -105 -30 0 c-28 0 -30 -3 -30 -35 0 -33 -2 -35 -35 -35
-32 0 -35 -2 -35 -30 l0 -30 65 0 65 0 0 30 0 30 70 0 70 0 0 35 0 35 135 0
135 0 0 -35 c0 -33 2 -35 35 -35 l35 0 0 -65 0 -65 70 0 70 0 0 -35 0 -35 65
0 65 0 0 -170 0 -170 -65 0 -65 0 0 -35 0 -35 -105 0 -105 0 0 -65 0 -65 35 0
35 0 0 -70 0 -70 -35 0 c-33 0 -35 -2 -35 -35 l0 -35 -205 0 -205 0 0 35 0 35
-65 0 -65 0 0 -70 0 -70 35 0 c32 0 35 -2 35 -30 0 -27 3 -30 30 -30 l30 0 0
-70 0 -70 -30 0 c-28 0 -30 -3 -30 -35 l0 -35 -105 0 -105 0 0 -35 c0 -33 -2
-35 -35 -35 -33 0 -35 2 -35 35 l0 35 -135 0 -135 0 0 35 0 35 -65 0 -65 0 0
35 c0 33 -2 35 -35 35 -33 0 -35 2 -35 35 l0 35 -70 0 -70 0 0 30 0 30 -65 0
-65 0 0 -30 c0 -27 3 -30 30 -30 28 0 30 -3 30 -35 0 -33 2 -35 35 -35 l35 0
0 -105 0 -105 -35 0 c-32 0 -35 -2 -35 -30 l0 -30 -135 0 -135 0 0 30 c0 28
-3 30 -35 30 -33 0 -35 2 -35 35 0 33 -2 35 -35 35 -33 0 -35 2 -35 35 l0 35
-65 0 -65 0 0 70 0 70 -35 0 c-32 0 -35 2 -35 30 0 28 -3 30 -35 30 -33 0 -35
2 -35 35 l0 35 -65 0 -65 0 0 -100 0 -100 -70 0 -70 0 0 35 0 35 -70 0 -70 0
0 65 0 65 -30 0 c-28 0 -30 3 -30 35 0 33 -2 35 -35 35 -33 0 -35 2 -35 35 l0
35 -105 0 -105 0 0 35 c0 32 -2 35 -30 35 -27 0 -30 3 -30 30 l0 30 -70 0 -70
0 0 35 c0 33 -2 35 -35 35 -33 0 -35 2 -35 35 l0 35 -205 0 -205 0 0 120 0
120 35 0 c24 0 35 5 35 15 0 10 11 15 35 15 33 0 35 -2 35 -35 l0 -35 135 0
135 0 0 -30 c0 -28 3 -30 35 -30 32 0 35 2 35 30 0 28 3 30 35 30 33 0 35 2
35 35 0 33 2 35 35 35 l35 0 0 70 0 70 65 0 65 0 0 35 0 35 170 0 170 0 0 65
0 65 35 0 c33 0 35 2 35 35 l0 35 70 0 70 0 0 35 0 35 100 0 100 0 0 -35 c0
-33 2 -35 35 -35 l35 0 0 -70 0 -70 -35 0 c-32 0 -35 -2 -35 -30 0 -28 -3 -30
-35 -30 -33 0 -35 -2 -35 -35 l0 -35 70 0 70 0 0 35 c0 33 2 35 35 35 32 0 35
2 35 30 0 27 3 30 30 30 l30 0 0 70 0 70 35 0 c33 0 35 2 35 35 0 33 2 35 35
35 l35 0 0 65 0 65 35 0 c33 0 35 2 35 35 l0 35 70 0 70 0 0 35 0 35 135 0
135 0 0 -35z m-3200 -2175 c0 -28 3 -30 35 -30 33 0 35 -2 35 -35 0 -33 2 -35
35 -35 l35 0 0 -70 0 -70 -35 0 -35 0 0 -65 0 -65 -35 0 c-33 0 -35 -2 -35
-35 0 -33 -2 -35 -35 -35 -33 0 -35 -2 -35 -35 0 -33 -2 -35 -35 -35 -33 0
-35 -2 -35 -35 0 -32 -2 -35 -30 -35 -28 0 -30 -3 -30 -35 0 -33 -2 -35 -35
-35 -32 0 -35 -2 -35 -30 0 -28 -3 -30 -35 -30 -33 0 -35 -2 -35 -35 0 -33 -2
-35 -35 -35 l-35 0 0 -70 0 -70 -35 0 c-33 0 -35 -2 -35 -35 0 -32 -2 -35 -30
-35 -27 0 -30 -3 -30 -30 0 -28 -3 -30 -35 -30 -33 0 -35 -2 -35 -35 0 -33 -2
-35 -35 -35 l-35 0 0 -70 0 -70 -35 0 c-33 0 -35 -2 -35 -35 0 -33 -2 -35 -35
-35 -32 0 -35 -2 -35 -30 0 -27 -3 -30 -30 -30 -28 0 -30 -3 -30 -35 0 -33 -2
-35 -35 -35 -33 0 -35 -2 -35 -35 0 -33 -2 -35 -35 -35 l-35 0 0 -70 0 -70
-35 0 -35 0 0 -135 0 -135 70 0 70 0 0 35 0 35 65 0 65 0 0 35 0 35 70 0 70 0
0 35 0 35 70 0 70 0 0 30 0 30 65 0 65 0 0 35 0 35 70 0 70 0 0 35 0 35 100 0
100 0 0 35 0 35 70 0 70 0 0 35 0 35 100 0 100 0 0 30 0 30 105 0 105 0 0 35
0 35 65 0 65 0 0 35 0 35 70 0 70 0 0 35 0 35 205 0 205 0 0 -35 c0 -32 2 -35
30 -35 28 0 30 -3 30 -35 0 -33 2 -35 35 -35 l35 0 0 -100 0 -100 -35 0 c-33
0 -35 -2 -35 -35 0 -32 -2 -35 -30 -35 -28 0 -30 -3 -30 -35 l0 -35 -70 0 -70
0 0 -35 0 -35 -70 0 -70 0 0 -30 0 -30 -100 0 -100 0 0 -35 0 -35 -70 0 -70 0
0 -35 0 -35 -65 0 -65 0 0 -35 0 -35 -70 0 -70 0 0 -35 0 -35 -65 0 -65 0 0
-30 0 -30 -70 0 -70 0 0 -35 0 -35 -70 0 -70 0 0 -35 0 -35 -65 0 -65 0 0 -35
0 -35 -70 0 -70 0 0 -35 0 -35 -65 0 -65 0 0 -35 0 -35 -70 0 -70 0 0 -65 0
-65 70 0 70 0 0 35 0 35 100 0 100 0 0 30 0 30 135 0 135 0 0 35 0 35 170 0
170 0 0 35 0 35 170 0 170 0 0 35 0 35 105 0 105 0 0 35 0 35 100 0 100 0 0
35 0 35 100 0 100 0 0 30 0 30 70 0 70 0 0 -30 c0 -28 3 -30 35 -30 33 0 35
-2 35 -35 0 -33 2 -35 35 -35 l35 0 0 -140 0 -140 -35 0 c-32 0 -35 -2 -35
-30 l0 -30 -70 0 -70 0 0 -35 0 -35 -65 0 -65 0 0 -35 0 -35 -105 0 -105 0 0
-35 0 -35 -100 0 -100 0 0 -35 0 -35 -105 0 -105 0 0 -30 0 -30 -65 0 -65 0 0
-35 0 -35 -105 0 -105 0 0 -35 0 -35 -170 0 -170 0 0 -35 0 -35 -100 0 -100 0
0 -35 0 -35 -100 0 -100 0 0 -30 c0 -28 -3 -30 -35 -30 -33 0 -35 -2 -35 -35
l0 -35 65 0 65 0 0 -35 0 -35 340 0 340 0 0 -35 0 -35 205 0 205 0 0 35 0 35
135 0 135 0 0 -35 0 -35 105 0 105 0 0 -35 c0 -33 2 -35 35 -35 l35 0 0 -135
0 -135 -24 0 c-13 0 -27 6 -30 13 -5 10 -7 10 -12 0 -3 -7 -21 -13 -40 -13
-32 0 -34 -2 -34 -35 l0 -35 -100 0 -100 0 0 -30 0 -30 -750 0 -750 0 0 -35 0
-35 -135 0 -135 0 0 -35 0 -35 -105 0 -105 0 0 -35 c0 -32 -2 -35 -30 -35 -28
0 -30 -3 -30 -35 l0 -35 -70 0 -70 0 0 -30 c0 -28 -3 -30 -35 -30 -33 0 -35
-2 -35 -35 l0 -35 -65 0 -65 0 0 -35 c0 -33 -2 -35 -35 -35 -33 0 -35 -2 -35
-35 l0 -35 -70 0 -70 0 0 -35 0 -35 -65 0 -65 0 0 -30 c0 -28 -3 -30 -35 -30
-33 0 -35 -2 -35 -35 0 -33 -2 -35 -35 -35 -33 0 -35 -2 -35 -35 0 -33 -2 -35
-35 -35 -33 0 -35 -2 -35 -35 0 -33 -2 -35 -35 -35 l-35 0 0 -100 0 -100 -30
0 c-28 0 -30 -3 -30 -35 0 -32 2 -35 30 -35 l30 0 0 -885 0 -885 35 0 c33 0
35 -2 35 -35 0 -33 -2 -35 -35 -35 l-35 0 0 -170 0 -170 -415 0 -415 0 0 -24
c0 -21 -5 -24 -67 -29 -38 -4 -141 -7 -230 -7 l-163 0 0 340 0 340 35 0 35 0
0 270 0 270 35 0 35 0 0 305 0 305 30 0 30 0 2 278 c1 152 3 260 5 240 4 -34
7 -38 34 -38 l29 0 0 305 0 305 -35 0 -35 0 0 70 0 70 -30 0 -30 0 0 100 0
100 -35 0 -35 0 0 70 0 70 -35 0 -35 0 0 65 0 65 -35 0 -35 0 0 105 0 105 -35
0 -35 0 0 270 0 270 35 0 35 0 0 340 0 340 35 0 35 0 0 105 0 105 35 0 35 0 0
135 0 135 35 0 35 0 0 135 0 135 30 0 30 0 0 170 0 170 25 0 c18 0 25 -5 25
-20 0 -11 5 -20 10 -20 7 0 10 150 10 430 l0 430 35 0 c32 0 35 2 35 30 l0 30
70 0 70 0 0 -30 c0 -28 3 -30 35 -30 33 0 35 -2 35 -35 0 -32 2 -35 30 -35 28
0 30 -3 30 -35 0 -33 2 -35 35 -35 l35 0 0 -70 0 -70 35 0 35 0 0 -65 0 -65
35 0 35 0 0 -375 0 -375 -35 0 -35 0 0 -205 0 -205 35 0 c33 0 35 -2 35 -35 0
-33 2 -35 35 -35 32 0 35 -2 35 -30 0 -27 3 -30 30 -30 27 0 30 3 30 30 l0 30
70 0 70 0 0 35 c0 33 2 35 35 35 33 0 35 2 35 35 l0 35 65 0 65 0 0 35 c0 33
2 35 35 35 33 0 35 2 35 35 0 33 2 35 35 35 32 0 35 2 35 30 0 28 3 30 35 30
33 0 35 2 35 35 0 33 2 35 35 35 33 0 35 2 35 35 0 32 2 35 30 35 28 0 30 3
30 35 0 33 2 35 35 35 33 0 35 2 35 35 0 33 2 35 35 35 32 0 35 2 35 30 0 28
3 30 35 30 33 0 35 2 35 35 0 33 2 35 35 35 33 0 35 2 35 35 0 32 2 35 30 35
28 0 30 3 30 35 0 33 2 35 35 35 33 0 35 2 35 35 0 33 2 35 35 35 32 0 35 2
35 30 0 28 3 30 35 30 33 0 35 2 35 35 0 33 2 35 35 35 33 0 35 2 35 35 0 32
2 35 30 35 28 0 30 3 30 35 0 33 2 35 35 35 33 0 35 2 35 35 0 33 2 35 35 35
32 0 35 2 35 30 0 28 3 30 35 30 33 0 35 2 35 35 0 33 2 35 35 35 33 0 35 2
35 35 l0 35 65 0 65 0 0 35 c0 33 2 35 35 35 33 0 35 2 35 35 0 33 2 35 35 35
32 0 35 2 35 30 0 28 3 30 35 30 33 0 35 2 35 35 0 32 2 35 30 35 28 0 30 3
30 35 0 33 2 35 35 35 33 0 35 2 35 35 0 33 2 35 35 35 33 0 35 2 35 35 l0 35
70 0 70 0 0 30 0 30 100 0 100 0 0 -30z m-5409 -2400 c10 0 19 -4 19 -10 0 -5
-11 -10 -25 -10 -22 0 -25 4 -24 33 1 23 3 26 6 10 3 -15 12 -23 24 -23z
m-3713 -4696 c46 -19 84 -55 121 -114 16 -25 176 -279 356 -565 180 -286 331
-525 336 -531 7 -9 52 -1 167 28 1729 435 3574 648 5407 624 1601 -21 2935
-160 4220 -442 1613 -354 3028 -947 3985 -1670 182 -138 299 -240 306 -269 13
-52 -47 -89 -107 -67 -14 6 -106 64 -205 130 -877 585 -1949 1033 -3264 1362
-1292 323 -2676 503 -4395 572 -395 15 -1575 15 -1920 0 -1352 -62 -2520 -203
-3700 -447 -149 -31 -285 -59 -302 -62 -18 -3 -33 -7 -33 -10 0 -2 132 -214
294 -471 404 -644 648 -1035 653 -1049 4 -10 -52 -13 -264 -13 l-269 0 -209
338 c-115 185 -277 447 -360 582 -83 135 -187 302 -231 373 -43 70 -85 127
-93 127 -65 0 -1310 -352 -1382 -391 -10 -5 -156 -239 -324 -519 l-306 -510
-265 0 -264 0 19 38 c11 20 116 197 234 392 119 195 212 356 208 358 -11 4
-432 -157 -676 -258 -359 -148 -746 -324 -1036 -471 -75 -38 -148 -69 -162
-69 -13 0 -35 9 -48 19 l-24 19 21 28 c25 34 245 158 595 334 422 213 800 383
1264 570 l239 97 52 84 c28 46 282 460 564 919 282 459 523 850 537 869 53 69
177 100 261 65z m6732 -1559 c229 -27 486 -90 591 -147 70 -36 141 -103 167
-155 18 -36 20 -74 26 -596 l7 -558 -758 3 -758 3 -70 24 c-103 34 -162 67
-220 122 -159 151 -163 435 -7 587 115 112 296 169 611 193 307 24 570 -14
814 -116 15 -7 17 2 17 93 l0 101 -63 35 c-125 70 -288 117 -452 131 -147 12
-479 -18 -722 -64 l-92 -18 -24 26 c-70 74 -81 176 -27 244 16 19 40 30 108
45 87 20 261 49 337 55 112 10 403 5 515 -8z m-1487 -21 c25 -9 65 -32 87 -52
l41 -37 -394 -655 -393 -655 -205 -3 -205 -2 -280 434 c-175 273 -283 431
-289 426 -5 -5 -149 -200 -320 -434 l-310 -425 -180 0 -180 0 -333 587 -334
587 19 35 c10 19 41 50 68 68 46 32 55 34 115 30 127 -8 103 22 394 -501 142
-257 262 -464 267 -462 4 3 34 43 66 88 268 383 500 707 520 729 14 14 52 38
85 53 54 24 70 27 142 23 92 -5 173 -38 224 -92 16 -17 134 -200 261 -406 128
-206 235 -376 239 -378 4 -1 149 228 321 508 173 281 320 515 325 519 38 31
177 40 249 15z m3161 -102 c44 -20 46 -23 46 -61 0 -23 3 -41 6 -41 3 0 49 9
102 20 237 48 586 46 784 -4 158 -40 290 -102 414 -196 87 -65 145 -174 164
-308 5 -37 10 -226 10 -419 l0 -353 -184 0 -185 0 -3 353 c-3 344 -4 353 -26
399 -47 94 -177 184 -327 223 -83 22 -307 30 -435 16 -58 -7 -153 -23 -212
-37 l-108 -26 -2 -461 -3 -462 -187 -3 -188 -2 0 669 0 669 63 21 c34 11 73
22 87 25 48 9 138 -2 184 -22z m2880 -221 c203 -42 451 -134 509 -188 62 -59
62 -53 65 -556 l3 -458 -553 3 c-527 4 -557 5 -630 26 -98 27 -130 43 -191
100 -139 131 -158 367 -39 494 84 90 223 139 449 159 215 19 433 -5 612 -66
41 -14 76 -25 78 -25 6 0 3 98 -3 115 -15 39 -212 115 -363 140 -86 15 -141
17 -315 12 -116 -4 -231 -11 -256 -16 -61 -13 -89 7 -114 82 -21 66 -16 114
17 152 35 41 155 55 417 50 167 -3 237 -8 314 -24z m1546 -727 c19 -8 52 -32
74 -52 125 -119 99 -323 -52 -405 -67 -37 -125 -43 -196 -23 -138 40 -217 188
-172 322 48 146 204 217 346 158z"/>
<path d="M3990 16010 c0 -15 7 -20 25 -20 18 0 25 5 25 20 0 15 -7 20 -25 20
-18 0 -25 -5 -25 -20z"/>
<path d="M12380 12730 c0 -5 9 -10 20 -10 11 0 20 5 20 10 0 6 -9 10 -20 10
-11 0 -20 -4 -20 -10z"/>
<path d="M4317 3763 c-174 -290 -315 -528 -313 -531 2 -2 120 35 263 82 254
84 522 168 718 224 66 19 99 33 97 42 -5 20 -433 710 -441 710 -4 0 -149 -237
-324 -527z"/>
<path d="M10937 2545 c-209 -34 -301 -121 -245 -233 20 -40 33 -52 92 -82 l69
-35 508 -3 509 -3 0 44 c0 24 3 78 6 119 l7 75 -69 26 c-92 34 -191 62 -294
83 -117 23 -462 29 -583 9z"/>
<path d="M15522 2319 c-93 -16 -132 -46 -132 -104 0 -65 61 -115 164 -134 36
-7 201 -11 413 -11 l353 0 0 75 0 76 -47 20 c-70 30 -215 65 -318 78 -105 13
-356 13 -433 0z"/>
<path d="M17386 2266 c-54 -20 -85 -45 -121 -95 -27 -39 -30 -50 -30 -121 0
-71 3 -82 30 -121 47 -66 101 -100 172 -106 113 -10 214 61 244 171 15 53 -1
135 -36 187 -51 78 -172 117 -259 85z m165 -85 c37 -38 37 -65 -2 -103 -17
-17 -26 -34 -21 -37 14 -10 29 -43 36 -84 4 -21 10 -45 13 -53 4 -10 -3 -14
-26 -14 -25 0 -32 5 -37 28 -25 112 -22 107 -77 117 l-37 7 0 -76 c0 -74 -1
-76 -25 -76 l-25 0 0 160 0 160 86 0 c81 0 87 -1 115 -29z"/>
<path d="M17400 2125 l0 -45 48 0 c67 0 88 21 71 68 -7 19 -15 22 -64 22 l-55
0 0 -45z"/>
</g>
</svg>
