<?xml version="1.0" standalone="no"?>
<!DOCTYPE svg PUBLIC "-//W3C//DTD SVG 20010904//EN"
 "http://www.w3.org/TR/2001/REC-SVG-20010904/DTD/svg10.dtd">
<svg version="1.0" xmlns="http://www.w3.org/2000/svg"
 width="2084.000000pt" height="2084.000000pt" viewBox="0 0 2084.000000 2084.000000"
 preserveAspectRatio="xMidYMid meet">
<metadata>
Created by potrace 1.14, written by Peter Selinger 2001-2017
</metadata>
<g transform="translate(0.000000,2084.000000) scale(0.100000,-0.100000)"
fill="#000000" stroke="none">
<path d="M0 10420 l0 -10420 10420 0 10420 0 0 10420 0 10420 -10420 0 -10420
0 0 -10420z m8820 8595 c0 -32 2 -35 30 -35 l30 0 0 -65 0 -65 140 0 140 0 0
-35 c0 -32 2 -35 30 -35 l30 0 0 -170 0 -170 35 0 c33 0 35 2 35 35 0 33 2 35
35 35 32 0 35 2 35 30 l0 30 70 0 70 0 0 -30 c0 -27 3 -30 30 -30 l30 0 0 -70
0 -70 35 0 35 0 0 -170 0 -170 -35 0 -35 0 0 -100 0 -100 -30 0 -30 0 0 -70 0
-70 30 0 c28 0 30 3 30 35 0 33 2 35 35 35 33 0 35 2 35 35 l0 35 70 0 70 0 0
-35 c0 -33 2 -35 35 -35 l35 0 0 -135 0 -135 -35 0 -35 0 0 -70 0 -70 -35 0
c-33 0 -35 -2 -35 -35 0 -33 -2 -35 -35 -35 -33 0 -35 -2 -35 -35 0 -33 -2
-35 -35 -35 l-35 0 0 -65 0 -65 105 0 105 0 0 -70 0 -70 -35 0 -35 0 0 -65 0
-65 -35 0 c-33 0 -35 -2 -35 -35 0 -33 -2 -35 -35 -35 l-35 0 0 -135 0 -135
-30 0 -30 0 0 -70 0 -70 -35 0 -35 0 0 -135 0 -135 35 0 c33 0 35 -2 35 -35 0
-33 -2 -35 -35 -35 -33 0 -35 -2 -35 -35 l0 -35 -70 0 -70 0 0 35 c0 33 -2 35
-35 35 -33 0 -35 2 -35 35 0 33 2 35 35 35 l35 0 0 100 0 100 -35 0 c-33 0
-35 2 -35 35 0 32 -2 35 -30 35 -28 0 -30 3 -30 35 l0 35 -70 0 -70 0 0 35 c0
33 -2 35 -35 35 l-35 0 0 100 0 100 -35 0 c-33 0 -35 2 -35 35 l0 35 -65 0
-65 0 0 35 c0 33 -2 35 -35 35 l-35 0 0 65 0 65 -35 0 c-33 0 -35 2 -35 35 0
33 2 35 35 35 33 0 35 2 35 35 l0 35 70 0 c40 0 70 -4 70 -10 0 -5 7 -10 15
-10 8 0 15 -9 15 -20 0 -11 7 -20 15 -20 12 0 15 14 15 65 l0 65 -65 0 -65 0
0 30 0 30 -105 0 -105 0 0 35 0 35 -65 0 -65 0 0 35 c0 33 -2 35 -35 35 -33 0
-35 2 -35 35 0 33 -2 35 -35 35 l-35 0 0 135 0 135 170 0 170 0 0 35 0 35 -65
0 -65 0 0 35 c0 33 -2 35 -35 35 -32 0 -35 2 -35 30 0 28 -3 30 -35 30 l-35 0
0 70 0 70 -35 0 -35 0 0 135 0 135 35 0 c33 0 35 2 35 35 0 33 2 35 35 35 33
0 35 -2 35 -35 0 -33 2 -35 35 -35 l35 0 0 70 0 70 -35 0 c-33 0 -35 2 -35 35
0 33 -2 35 -35 35 l-35 0 0 65 0 65 35 0 c33 0 35 2 35 35 0 33 2 35 35 35 33
0 35 2 35 35 0 32 2 35 30 35 l30 0 0 100 0 100 35 0 c33 0 35 2 35 35 l0 35
105 0 105 0 0 -35z m-1640 -100 l0 -65 35 0 35 0 0 -170 0 -170 35 0 35 0 0
-170 0 -170 35 0 35 0 0 -105 0 -105 35 0 35 0 0 -100 0 -100 30 0 30 0 0
-105 0 -105 35 0 35 0 0 -65 0 -65 35 0 c33 0 35 -2 35 -35 0 -33 2 -35 35
-35 l35 0 0 -70 0 -70 35 0 c32 0 35 -2 35 -30 0 -27 3 -30 30 -30 28 0 30 -3
30 -35 0 -33 2 -35 35 -35 33 0 35 -2 35 -35 0 -33 2 -35 35 -35 33 0 35 -2
35 -35 0 -33 2 -35 35 -35 33 0 35 -2 35 -35 0 -33 2 -35 35 -35 32 0 35 -2
35 -30 0 -27 3 -30 30 -30 28 0 30 -3 30 -35 0 -33 2 -35 35 -35 33 0 35 -2
35 -35 0 -33 2 -35 35 -35 33 0 35 -2 35 -35 0 -33 2 -35 35 -35 33 0 35 -2
35 -35 l0 -35 65 0 65 0 0 -30 c0 -28 3 -30 35 -30 33 0 35 -2 35 -35 0 -33 2
-35 35 -35 33 0 35 -2 35 -35 0 -33 2 -35 35 -35 33 0 35 -2 35 -35 0 -33 2
-35 35 -35 33 0 35 -2 35 -35 0 -32 2 -35 30 -35 27 0 30 -3 30 -30 0 -28 3
-30 35 -30 33 0 35 -2 35 -35 0 -33 2 -35 35 -35 33 0 35 -2 35 -35 0 -33 2
-35 35 -35 33 0 35 -2 35 -35 0 -33 2 -35 35 -35 33 0 35 -2 35 -35 0 -32 2
-35 30 -35 l30 0 0 -65 0 -65 35 0 c33 0 35 -2 35 -35 0 -33 2 -35 35 -35 33
0 35 -2 35 -35 0 -33 2 -35 35 -35 33 0 35 -2 35 -35 0 -33 2 -35 35 -35 33 0
35 -2 35 -35 0 -32 2 -35 30 -35 27 0 30 -3 30 -30 0 -28 3 -30 35 -30 33 0
35 -2 35 -35 0 -33 2 -35 35 -35 33 0 35 -2 35 -35 0 -33 2 -35 35 -35 33 0
35 -2 35 -35 0 -33 2 -35 35 -35 33 0 35 -2 35 -35 0 -32 2 -35 30 -35 27 0
30 -3 30 -30 0 -28 3 -30 35 -30 33 0 35 -2 35 -35 0 -33 2 -35 35 -35 33 0
35 -2 35 -35 0 -33 2 -35 35 -35 33 0 35 -2 35 -35 0 -33 2 -35 35 -35 33 0
35 -2 35 -35 0 -32 2 -35 30 -35 l30 0 0 -65 0 -65 35 0 35 0 0 -70 0 -70 35
0 c33 0 35 -2 35 -35 0 -33 2 -35 35 -35 l35 0 0 -65 0 -65 35 0 35 0 0 -105
0 -105 30 0 30 0 0 -65 0 -65 35 0 35 0 0 -70 0 -70 70 0 70 0 0 105 0 105 35
0 35 0 0 65 0 65 35 0 35 0 0 70 0 70 30 0 30 0 0 65 0 65 35 0 35 0 0 70 0
70 35 0 35 0 0 70 0 70 35 0 c32 0 35 2 35 30 0 28 3 30 35 30 33 0 35 2 35
35 0 32 2 35 30 35 l30 0 0 70 0 70 35 0 c33 0 35 2 35 35 0 33 2 35 35 35 32
0 35 2 35 30 0 28 3 30 35 30 33 0 35 2 35 35 0 33 2 35 35 35 33 0 35 2 35
35 0 32 2 35 30 35 l30 0 0 70 0 70 -65 0 -65 0 0 -35 0 -35 -70 0 -70 0 0
-35 c0 -33 -2 -35 -35 -35 l-35 0 0 -70 0 -70 -30 0 c-27 0 -30 -3 -30 -30 0
-28 -3 -30 -35 -30 -33 0 -35 -2 -35 -35 0 -33 -2 -35 -35 -35 -33 0 -35 -2
-35 -35 l0 -35 -70 0 -70 0 0 -70 0 -70 -30 0 -30 0 0 -65 0 -65 -35 0 c-33 0
-35 -2 -35 -35 l0 -35 -70 0 -70 0 0 35 c0 33 -2 35 -35 35 -33 0 -35 2 -35
35 0 33 2 35 35 35 32 0 35 2 35 30 0 28 3 30 35 30 l35 0 0 70 0 70 35 0 35
0 0 70 0 70 -35 0 -35 0 0 65 0 65 -35 0 -35 0 0 70 0 70 -35 0 -35 0 0 65 0
65 35 0 35 0 0 70 0 70 -35 0 -35 0 0 70 0 70 -35 0 c-32 0 -35 2 -35 30 0 27
-3 30 -30 30 l-30 0 0 70 0 70 30 0 30 0 0 70 0 70 70 0 70 0 0 -35 c0 -33 2
-35 35 -35 33 0 35 -2 35 -35 l0 -35 70 0 70 0 0 35 c0 33 -2 35 -35 35 -33 0
-35 2 -35 35 0 33 -2 35 -35 35 -33 0 -35 2 -35 35 0 33 -2 35 -35 35 -32 0
-35 2 -35 30 0 28 -3 30 -35 30 -33 0 -35 2 -35 35 0 33 -2 35 -35 35 l-35 0
0 70 0 70 -30 0 -30 0 0 65 0 65 -35 0 c-33 0 -35 2 -35 35 0 33 2 35 35 35
l35 0 0 70 0 70 30 0 c28 0 30 3 30 35 l0 35 70 0 70 0 0 -35 c0 -33 2 -35 35
-35 33 0 35 -2 35 -35 l0 -35 70 0 70 0 0 35 c0 33 -2 35 -35 35 l-35 0 0 65
0 65 -35 0 -35 0 0 240 0 240 35 0 c33 0 35 2 35 35 l0 35 100 0 100 0 0 -70
0 -70 35 0 35 0 0 205 0 205 35 0 c33 0 35 2 35 35 0 33 2 35 35 35 33 0 35 2
35 35 l0 35 65 0 65 0 0 30 c0 28 3 30 35 30 33 0 35 2 35 35 l0 35 100 0 100
0 0 -35 c0 -33 2 -35 35 -35 32 0 35 -2 35 -30 0 -28 3 -30 35 -30 l35 0 0
-140 0 -140 100 0 100 0 0 -170 0 -170 -30 0 c-27 0 -30 -3 -30 -30 0 -28 -3
-30 -35 -30 -33 0 -35 -2 -35 -35 l0 -35 135 0 135 0 0 -35 c0 -33 2 -35 35
-35 l35 0 0 -100 c0 -93 -1 -100 -20 -100 -13 0 -20 7 -20 20 0 11 -7 20 -15
20 -12 0 -15 -17 -15 -90 l0 -90 -35 0 -35 0 0 -70 0 -70 -35 0 c-32 0 -35 -2
-35 -30 0 -27 -3 -30 -30 -30 -28 0 -30 -3 -30 -35 0 -33 -2 -35 -35 -35 -33
0 -35 -2 -35 -35 0 -33 -2 -35 -35 -35 -33 0 -35 -2 -35 -35 0 -33 -2 -35 -35
-35 -33 0 -35 -2 -35 -35 l0 -35 70 0 70 0 0 35 0 35 100 0 100 0 0 -135 0
-135 -35 0 c-33 0 -35 -2 -35 -35 0 -32 -2 -35 -30 -35 -28 0 -30 -3 -30 -35
0 -33 -2 -35 -35 -35 -33 0 -35 -2 -35 -35 l0 -35 -70 0 -70 0 0 -30 0 -30
-65 0 -65 0 0 -35 c0 -33 -2 -35 -35 -35 -33 0 -35 -2 -35 -35 l0 -35 65 0 65
0 0 -100 0 -100 70 0 70 0 0 30 c0 28 3 30 35 30 33 0 35 2 35 35 0 33 2 35
35 35 33 0 35 2 35 35 0 32 2 35 30 35 28 0 30 3 30 35 l0 35 70 0 70 0 0 35
0 35 100 0 100 0 0 30 0 30 140 0 140 0 0 35 0 35 340 0 340 0 0 -35 c0 -28 4
-35 20 -35 16 0 20 7 20 35 0 19 5 35 10 35 6 0 10 -28 10 -65 l0 -65 -200 0
-200 0 0 -35 0 -35 -105 0 -105 0 0 -35 0 -35 -100 0 -100 0 0 -35 0 -35 -70
0 -70 0 0 -35 c0 -33 -2 -35 -35 -35 -32 0 -35 -2 -35 -30 l0 -30 -65 0 -65 0
0 -35 0 -35 -70 0 -70 0 0 -35 c0 -33 -2 -35 -35 -35 -33 0 -35 -2 -35 -35 0
-32 -2 -35 -30 -35 -28 0 -30 -3 -30 -35 0 -33 -2 -35 -35 -35 -32 0 -35 -2
-35 -30 0 -28 -3 -30 -35 -30 l-35 0 0 -70 0 -70 -35 0 -35 0 0 -70 0 -70 -35
0 c-32 0 -35 -2 -35 -30 0 -27 -3 -30 -30 -30 l-30 0 0 -70 0 -70 -35 0 -35 0
0 -100 0 -100 -35 0 -35 0 0 -70 0 -70 -35 0 -35 0 0 -70 0 -70 -35 0 -35 0 0
-100 0 -100 -30 0 -30 0 0 -100 0 -100 -35 0 -35 0 0 -105 0 -105 -35 0 -35 0
0 -100 0 -100 -35 0 -35 0 0 -105 0 -105 -35 0 -35 0 0 -100 0 -100 -30 0 -30
0 0 -135 0 -135 -35 0 -35 0 0 -135 0 -135 -35 0 -35 0 0 -70 0 -70 -35 0 -35
0 0 -100 0 -100 -35 0 -35 0 0 -105 0 -105 -35 0 -35 0 0 -65 0 -65 -30 0 -30
0 0 -70 0 -70 -35 0 -35 0 0 -70 0 -70 -35 0 -35 0 0 -65 0 -65 -35 0 c-33 0
-35 -2 -35 -35 l0 -35 -65 0 -65 0 0 70 0 70 30 0 30 0 0 200 0 200 35 0 35 0
0 445 0 445 -35 0 -35 0 0 205 0 205 -30 0 -30 0 0 135 0 135 -35 0 -35 0 0
100 0 100 -35 0 -35 0 0 70 0 70 -35 0 -35 0 0 100 0 100 -35 0 -35 0 0 70 0
70 -30 0 -30 0 0 65 0 65 -35 0 c-33 0 -35 2 -35 35 0 33 -2 35 -35 35 l-35 0
0 70 0 70 -35 0 c-33 0 -35 2 -35 35 0 33 -2 35 -35 35 l-35 0 0 65 0 65 -30
0 c-28 0 -30 3 -30 35 0 33 -2 35 -35 35 -33 0 -35 2 -35 35 0 33 -2 35 -35
35 -33 0 -35 2 -35 35 0 33 -2 35 -35 35 -32 0 -35 2 -35 30 0 28 -3 30 -35
30 -33 0 -35 2 -35 35 0 32 -2 35 -30 35 -28 0 -30 3 -30 35 0 33 -2 35 -35
35 -33 0 -35 2 -35 35 0 33 -2 35 -35 35 -33 0 -35 2 -35 35 0 33 -2 35 -35
35 -32 0 -35 2 -35 30 0 28 -3 30 -35 30 -33 0 -35 2 -35 35 0 32 -2 35 -30
35 -28 0 -30 3 -30 35 0 33 -2 35 -35 35 -33 0 -35 2 -35 35 0 33 -2 35 -35
35 -33 0 -35 2 -35 35 l0 35 -70 0 -70 0 0 30 c0 27 -3 30 -30 30 -28 0 -30 3
-30 35 l0 35 -70 0 -70 0 0 35 c0 33 -2 35 -35 35 -33 0 -35 2 -35 35 l0 35
-65 0 -65 0 0 35 0 35 -70 0 -70 0 0 30 0 30 -70 0 -70 0 0 35 0 35 -65 0 -65
0 0 35 0 35 -105 0 -105 0 0 35 0 35 -135 0 -135 0 0 35 0 35 -135 0 -135 0 0
35 0 35 -135 0 -135 0 0 30 0 30 -170 0 -170 0 0 35 0 35 -105 0 -105 0 0 35
0 35 -65 0 -65 0 0 35 0 35 -70 0 -70 0 0 35 c0 33 -2 35 -35 35 -32 0 -35 2
-35 30 l0 30 -65 0 -65 0 0 35 c0 33 -2 35 -35 35 -33 0 -35 2 -35 35 0 33 -2
35 -35 35 -33 0 -35 2 -35 35 0 33 -2 35 -35 35 -33 0 -35 2 -35 35 0 32 -2
35 -30 35 l-30 0 0 65 0 65 -35 0 c-33 0 -35 2 -35 35 0 33 -2 35 -35 35 -33
0 -35 2 -35 35 0 33 -2 35 -35 35 -33 0 -35 2 -35 35 0 33 -2 35 -35 35 l-35
0 0 65 0 65 -30 0 c-28 0 -30 3 -30 35 0 33 -2 35 -35 35 -33 0 -35 2 -35 35
l0 35 65 0 65 0 0 -35 c0 -33 2 -35 35 -35 33 0 35 -2 35 -35 0 -33 2 -35 35
-35 33 0 35 -2 35 -35 0 -33 2 -35 35 -35 32 0 35 -2 35 -30 l0 -30 65 0 65 0
0 -35 c0 -33 2 -35 35 -35 33 0 35 -2 35 -35 l0 -35 70 0 70 0 0 -35 0 -35 65
0 65 0 0 -35 0 -35 105 0 105 0 0 -30 0 -30 65 0 65 0 0 -35 0 -35 105 0 105
0 0 -35 0 -35 100 0 100 0 0 -35 0 -35 105 0 105 0 0 -35 0 -35 170 0 170 0 0
-30 0 -30 100 0 100 0 0 -35 0 -35 135 0 135 0 0 -35 0 -35 135 0 135 0 0 -35
0 -35 70 0 70 0 0 35 c0 33 -2 35 -35 35 -33 0 -35 2 -35 35 0 33 -2 35 -35
35 -33 0 -35 2 -35 35 0 32 -2 35 -30 35 -27 0 -30 3 -30 30 0 28 -3 30 -35
30 l-35 0 0 70 0 70 -35 0 c-33 0 -35 2 -35 35 0 33 -2 35 -35 35 -33 0 -35 2
-35 35 0 33 -2 35 -35 35 l-35 0 0 65 0 65 -30 0 -30 0 0 70 0 70 -35 0 c-33
0 -35 2 -35 35 0 33 -2 35 -35 35 l-35 0 0 65 0 65 -35 0 -35 0 0 105 0 105
-35 0 -35 0 0 65 0 65 -30 0 -30 0 0 205 0 205 -35 0 -35 0 0 410 0 410 35 0
35 0 0 65 0 65 30 0 30 0 0 -65z m-1360 -510 c0 -33 2 -35 35 -35 33 0 35 -2
35 -35 0 -33 2 -35 35 -35 33 0 35 -2 35 -35 0 -33 2 -35 35 -35 l35 0 0 70 0
70 100 0 100 0 0 -35 c0 -33 2 -35 35 -35 l35 0 0 -65 0 -65 35 0 35 0 0 -105
0 -105 35 0 c33 0 35 2 35 35 l0 35 100 0 100 0 0 -70 0 -70 35 0 35 0 0 -170
0 -170 65 0 65 0 0 -30 c0 -28 3 -30 35 -30 l35 0 0 -70 0 -70 -35 0 -35 0 0
-70 0 -70 35 0 35 0 0 -100 0 -100 35 0 35 0 0 -70 0 -70 35 0 35 0 0 -100 0
-100 -35 0 c-33 0 -35 2 -35 35 0 33 -2 35 -35 35 -33 0 -35 2 -35 35 0 33 -2
35 -35 35 -32 0 -35 2 -35 30 l0 30 -135 0 -135 0 0 35 c0 33 -2 35 -35 35
-33 0 -35 2 -35 35 l0 35 -170 0 -170 0 0 100 0 100 -65 0 -65 0 0 -30 0 -30
-70 0 -70 0 0 30 0 30 -65 0 -65 0 0 35 c0 33 -2 35 -35 35 l-35 0 0 70 0 70
35 0 c33 0 35 2 35 35 0 33 -2 35 -35 35 -32 0 -35 2 -35 30 l0 30 -70 0 -70
0 0 35 0 35 -65 0 -65 0 0 70 0 70 30 0 30 0 0 65 0 65 -30 0 c-28 0 -30 3
-30 35 0 33 -2 35 -35 35 l-35 0 0 170 0 170 35 0 c33 0 35 2 35 35 l0 35 170
0 170 0 0 35 c0 32 2 35 30 35 28 0 30 -3 30 -35z m7690 -610 c0 -33 2 -35 35
-35 l35 0 0 -70 0 -70 -35 0 c-33 0 -35 -2 -35 -35 0 -33 2 -35 35 -35 32 0
35 -2 35 -30 0 -28 3 -30 35 -30 l35 0 0 -70 0 -70 -35 0 c-33 0 -35 -2 -35
-35 0 -33 -2 -35 -35 -35 -33 0 -35 -2 -35 -35 l0 -35 70 0 70 0 0 -100 0
-100 -35 0 -35 0 0 -70 0 -70 -35 0 c-32 0 -35 -2 -35 -30 l0 -30 -70 0 -70 0
0 -70 0 -70 35 0 35 0 0 -70 0 -70 -35 0 c-32 0 -35 -2 -35 -30 l0 -30 -65 0
-65 0 0 -35 0 -35 -105 0 -105 0 0 -105 0 -105 -135 0 -135 0 0 -30 c0 -28 -3
-30 -35 -30 -33 0 -35 -2 -35 -35 l0 -35 -100 0 -100 0 0 -35 c0 -33 -2 -35
-35 -35 -33 0 -35 -2 -35 -35 0 -33 -2 -35 -35 -35 -33 0 -35 -2 -35 -35 l0
-35 -65 0 -65 0 0 70 0 70 35 0 c33 0 35 2 35 35 0 32 2 35 30 35 l30 0 0 205
0 205 35 0 35 0 0 65 0 65 -35 0 -35 0 0 70 0 70 35 0 c33 0 35 2 35 35 l0 35
70 0 70 0 0 65 0 65 -35 0 -35 0 0 170 0 170 35 0 c33 0 35 2 35 35 0 33 2 35
35 35 33 0 35 -2 35 -35 l0 -35 65 0 65 0 0 135 0 135 35 0 c33 0 35 2 35 35
l0 35 70 0 70 0 0 -35 c0 -32 2 -35 30 -35 l30 0 0 70 0 70 35 0 c33 0 35 2
35 35 0 33 2 35 35 35 33 0 35 2 35 35 l0 35 170 0 170 0 0 -35z m2920 -820
c0 -33 2 -35 35 -35 l35 0 0 -65 0 -65 35 0 c33 0 35 -2 35 -35 0 -33 2 -35
35 -35 l35 0 0 -105 0 -105 -35 0 c-32 0 -35 -2 -35 -30 0 -28 3 -30 35 -30
33 0 35 -2 35 -35 0 -33 2 -35 35 -35 33 0 35 -2 35 -35 0 -33 2 -35 35 -35
33 0 35 -2 35 -35 0 -33 -2 -35 -35 -35 l-35 0 0 -65 0 -65 -35 0 -35 0 0 -70
0 -70 -70 0 -70 0 0 -70 0 -70 35 0 c33 0 35 -2 35 -35 0 -33 2 -35 35 -35 32
0 35 -2 35 -30 0 -28 -3 -30 -35 -30 -33 0 -35 -2 -35 -35 0 -33 -2 -35 -35
-35 -33 0 -35 -2 -35 -35 0 -33 -2 -35 -35 -35 -33 0 -35 -2 -35 -35 l0 -35
-65 0 -65 0 0 -35 c0 -33 -2 -35 -35 -35 -32 0 -35 -2 -35 -30 0 -28 3 -30 35
-30 33 0 35 -2 35 -35 0 -33 -2 -35 -35 -35 -33 0 -35 -2 -35 -35 0 -33 -2
-35 -35 -35 -33 0 -35 -2 -35 -35 l0 -35 -65 0 -65 0 0 -35 c0 -33 -2 -35 -35
-35 -32 0 -35 -2 -35 -30 0 -28 -3 -30 -35 -30 -33 0 -35 -2 -35 -35 l0 -35
-70 0 -70 0 0 -70 0 -70 -30 0 c-28 0 -30 -3 -30 -35 l0 -35 -70 0 -70 0 0
105 0 105 35 0 35 0 0 100 0 100 -35 0 -35 0 0 105 0 105 35 0 35 0 0 65 c0
37 -4 65 -10 65 -5 0 -10 -16 -10 -35 0 -31 -3 -35 -25 -35 -24 0 -25 2 -25
70 l0 70 -35 0 -35 0 0 70 0 70 35 0 c32 0 35 2 35 30 l0 30 70 0 70 0 0 35
c0 33 -2 35 -35 35 -33 0 -35 2 -35 35 0 33 -2 35 -35 35 l-35 0 0 105 0 105
-35 0 c-32 0 -35 2 -35 30 0 28 3 30 35 30 l35 0 0 70 0 70 70 0 70 0 0 -35
c0 -32 2 -35 30 -35 l30 0 0 205 0 205 35 0 c33 0 35 2 35 35 0 33 2 35 35 35
33 0 35 -2 35 -35 l0 -35 70 0 70 0 0 135 0 135 100 0 100 0 0 35 0 35 100 0
100 0 0 -35z m-13120 -540 l0 -35 65 0 65 0 0 35 c0 33 2 35 35 35 33 0 35 -2
35 -35 0 -33 2 -35 35 -35 33 0 35 -2 35 -35 l0 -35 65 0 65 0 0 35 0 35 70 0
70 0 0 -35 c0 -33 2 -35 35 -35 33 0 35 -2 35 -35 0 -33 2 -35 35 -35 l35 0 0
-100 0 -100 135 0 135 0 0 -35 c0 -33 2 -35 35 -35 l35 0 0 -170 0 -170 30 0
c28 0 30 -3 30 -35 0 -33 2 -35 35 -35 l35 0 0 -170 0 -170 35 0 35 0 0 -135
0 -135 35 0 35 0 0 -105 0 -105 70 0 70 0 0 -30 0 -30 100 0 100 0 0 100 0
100 -35 0 -35 0 0 135 0 135 -35 0 -35 0 0 375 0 375 35 0 35 0 0 105 0 105
35 0 35 0 0 65 0 65 35 0 c33 0 35 2 35 35 0 33 2 35 35 35 33 0 35 2 35 35 0
32 2 35 30 35 l30 0 0 -105 0 -105 -30 0 -30 0 0 -170 0 -170 30 0 30 0 0
-170 0 -170 35 0 35 0 0 -100 0 -100 35 0 35 0 0 -70 0 -70 35 0 35 0 0 -100
0 -100 35 0 35 0 0 -70 0 -70 30 0 30 0 0 -65 0 -65 35 0 c33 0 35 -2 35 -35
0 -33 2 -35 35 -35 l35 0 0 -70 0 -70 35 0 c33 0 35 -2 35 -35 0 -33 2 -35 35
-35 l35 0 0 -65 0 -65 30 0 c28 0 30 -3 30 -35 0 -33 2 -35 35 -35 l35 0 0
-70 0 -70 35 0 c32 0 35 -2 35 -30 0 -28 3 -30 35 -30 l35 0 0 135 0 135 -70
0 -70 0 0 100 0 100 -35 0 c-33 0 -35 2 -35 35 0 32 -2 35 -30 35 -28 0 -30 3
-30 35 0 33 -2 35 -35 35 l-35 0 0 65 0 65 35 0 c33 0 35 2 35 35 0 33 -2 35
-35 35 -33 0 -35 2 -35 35 0 33 -2 35 -35 35 -33 0 -35 2 -35 35 0 33 -2 35
-35 35 -33 0 -35 2 -35 35 0 33 -2 35 -35 35 l-35 0 0 65 0 65 35 0 c33 0 35
2 35 35 l0 35 70 0 70 0 0 35 c0 33 -2 35 -35 35 -33 0 -35 2 -35 35 0 33 -2
35 -35 35 l-35 0 0 100 0 100 35 0 c33 0 35 2 35 35 0 33 2 35 35 35 l35 0 0
80 0 80 -35 0 c-28 0 -35 4 -35 20 0 16 7 20 35 20 33 0 35 2 35 35 0 33 2 35
35 35 33 0 35 2 35 35 0 32 2 35 30 35 28 0 30 3 30 35 l0 35 105 0 105 0 0
-35 c0 -33 2 -35 35 -35 33 0 35 -2 35 -35 l0 -35 65 0 65 0 0 -35 c0 -33 2
-35 35 -35 l35 0 0 -65 0 -65 70 0 70 0 0 -70 0 -70 30 0 30 0 0 -100 0 -100
-30 0 -30 0 0 -105 0 -105 65 0 65 0 0 -100 0 -100 -35 0 -35 0 0 -70 0 -70
-65 0 -65 0 0 -65 0 -65 35 0 35 0 0 -105 0 -105 -35 0 c-33 0 -35 -2 -35 -35
0 -33 -2 -35 -35 -35 l-35 0 0 -65 0 -65 -35 0 c-33 0 -35 -2 -35 -35 0 -33
-2 -35 -35 -35 l-35 0 0 -135 0 -135 -30 0 -30 0 0 -70 0 -70 30 0 c28 0 30
-3 30 -35 0 -33 2 -35 35 -35 l35 0 0 -65 0 -65 35 0 35 0 0 -70 0 -70 35 0
c33 0 35 -2 35 -35 0 -33 2 -35 35 -35 l35 0 0 -65 0 -65 30 0 c28 0 30 -3 30
-35 0 -32 -2 -35 -30 -35 -28 0 -30 -3 -30 -35 0 -33 -2 -35 -35 -35 -33 0
-35 2 -35 35 0 33 -2 35 -35 35 -33 0 -35 2 -35 35 l0 35 -70 0 -70 0 0 35 c0
32 -2 35 -30 35 -27 0 -30 3 -30 30 0 28 -3 30 -35 30 -33 0 -35 2 -35 35 l0
35 -70 0 -70 0 0 35 c0 33 -2 35 -35 35 -33 0 -35 2 -35 35 0 32 -2 35 -30 35
-28 0 -30 3 -30 35 0 33 -2 35 -35 35 -32 0 -35 2 -35 30 0 28 -3 30 -35 30
-33 0 -35 2 -35 35 0 33 -2 35 -35 35 -33 0 -35 2 -35 35 0 33 -2 35 -35 35
-33 0 -35 2 -35 35 0 32 -2 35 -30 35 -28 0 -30 3 -30 35 l0 35 -70 0 -70 0 0
30 0 30 -70 0 -70 0 0 35 0 35 -100 0 -100 0 0 35 0 35 -70 0 -70 0 0 35 0 35
-135 0 -135 0 0 35 0 35 -100 0 -100 0 0 30 0 30 -170 0 -170 0 0 35 0 35
-680 0 -680 0 0 -65 0 -65 65 0 65 0 0 -35 0 -35 70 0 70 0 0 35 c0 33 2 35
35 35 32 0 35 2 35 30 l0 30 65 0 65 0 0 -30 0 -30 70 0 70 0 0 -35 0 -35 170
0 170 0 0 -35 0 -35 65 0 65 0 0 35 0 35 105 0 105 0 0 -70 0 -70 -35 0 c-33
0 -35 -2 -35 -35 l0 -35 -135 0 -135 0 0 -100 0 -100 -35 0 c-33 0 -35 -2 -35
-35 l0 -35 -70 0 -70 0 0 -35 c0 -32 -2 -35 -30 -35 l-30 0 0 -65 0 -65 -35 0
c-33 0 -35 -2 -35 -35 0 -33 -2 -35 -35 -35 -33 0 -35 -2 -35 -35 0 -33 -2
-35 -35 -35 -33 0 -35 2 -35 35 0 33 -2 35 -35 35 -33 0 -35 2 -35 35 0 32 -2
35 -30 35 l-30 0 0 -135 0 -135 -35 0 -35 0 0 -70 0 -70 -70 0 -70 0 0 -35 0
-35 -65 0 -65 0 0 35 c0 33 -2 35 -35 35 -33 0 -35 2 -35 35 0 33 -2 35 -35
35 -33 0 -35 -2 -35 -35 0 -33 -2 -35 -35 -35 -33 0 -35 -2 -35 -35 0 -33 -2
-35 -35 -35 -33 0 -35 -2 -35 -35 l0 -35 -100 0 -100 0 0 35 c0 33 -2 35 -35
35 -33 0 -35 2 -35 35 0 33 -2 35 -35 35 -33 0 -35 -2 -35 -35 l0 -35 -135 0
-135 0 0 35 0 35 -100 0 -100 0 0 35 c0 33 -2 35 -35 35 l-35 0 0 65 0 65 35
0 c33 0 35 2 35 35 0 33 2 35 35 35 33 0 35 2 35 35 0 32 2 35 30 35 28 0 30
3 30 35 0 32 -2 35 -30 35 l-30 0 0 65 0 65 30 0 c28 0 30 3 30 35 l0 35 105
0 105 0 0 35 c0 33 -2 35 -35 35 l-35 0 0 100 0 100 70 0 70 0 0 35 0 35 200
0 200 0 0 105 0 105 35 0 c32 0 35 2 35 30 l0 30 -100 0 -100 0 0 -30 0 -30
-135 0 -135 0 0 -35 0 -35 -105 0 -105 0 0 -35 0 -35 -135 0 -135 0 0 35 c0
33 2 35 35 35 33 0 35 2 35 35 l0 35 65 0 65 0 0 30 c0 28 3 30 35 30 33 0 35
2 35 35 l0 35 70 0 70 0 0 35 0 35 65 0 65 0 0 35 0 35 70 0 70 0 0 35 0 35
100 0 100 0 0 30 0 30 140 0 140 0 0 35 0 35 170 0 170 0 0 35 0 35 -70 0 -70
0 0 35 0 35 -100 0 -100 0 0 35 0 35 -70 0 -70 0 0 30 0 30 -70 0 -70 0 0 35
0 35 -65 0 -65 0 0 35 c0 33 -2 35 -35 35 -33 0 -35 2 -35 35 0 33 -2 35 -35
35 -33 0 -35 2 -35 35 0 33 -2 35 -35 35 -32 0 -35 2 -35 30 0 27 -3 30 -30
30 l-30 0 0 70 0 70 -35 0 c-33 0 -35 2 -35 35 0 33 -2 35 -35 35 l-35 0 0
135 0 135 35 0 c33 0 35 -2 35 -35 0 -33 2 -35 35 -35 l35 0 0 -65 0 -65 30 0
c28 0 30 -3 30 -35 0 -33 2 -35 35 -35 33 0 35 -2 35 -35 0 -33 2 -35 35 -35
33 0 35 -2 35 -35 l0 -35 70 0 70 0 0 -35 c0 -32 2 -35 30 -35 27 0 30 -3 30
-30 l0 -30 70 0 70 0 0 -35 0 -35 70 0 70 0 0 -35 0 -35 100 0 100 0 0 -35 0
-35 100 0 100 0 0 -35 0 -35 140 0 140 0 0 -30 0 -30 170 0 170 0 0 -35 0 -35
170 0 170 0 0 -35 0 -35 135 0 135 0 0 -35 0 -35 100 0 100 0 0 35 c0 33 -2
35 -35 35 l-35 0 0 70 0 70 -135 0 -135 0 0 30 0 30 -135 0 -135 0 0 35 c0 33
-2 35 -35 35 l-35 0 0 70 0 70 -170 0 -170 0 0 35 c0 33 -2 35 -35 35 l-35 0
0 65 0 65 35 0 35 0 0 70 0 70 -100 0 -100 0 0 35 c0 33 -2 35 -35 35 -32 0
-35 2 -35 30 0 28 -3 30 -35 30 -33 0 -35 2 -35 35 l0 35 70 0 70 0 0 70 0 70
-70 0 -70 0 0 205 0 205 35 0 c33 0 35 2 35 35 l0 35 70 0 70 0 0 -35z m12040
-515 l0 -340 -35 0 -35 0 0 -70 0 -70 -35 0 -35 0 0 -100 0 -100 -35 0 -35 0
0 -70 0 -70 -35 0 c-32 0 -35 -2 -35 -30 0 -27 -3 -30 -30 -30 l-30 0 0 -70 0
-70 -35 0 c-33 0 -35 -2 -35 -35 0 -33 -2 -35 -35 -35 -33 0 -35 -2 -35 -35 0
-33 -2 -35 -35 -35 l-35 0 0 -65 0 -65 -35 0 c-33 0 -35 -2 -35 -35 0 -32 -2
-35 -30 -35 -28 0 -30 -3 -30 -35 0 -33 -2 -35 -35 -35 -33 0 -35 -2 -35 -35
l0 -35 -70 0 -70 0 0 -65 0 -65 70 0 70 0 0 35 0 35 100 0 100 0 0 30 0 30
135 0 135 0 0 35 0 35 105 0 105 0 0 35 0 35 170 0 170 0 0 35 0 35 235 0 235
0 0 35 0 35 275 0 275 0 0 30 0 30 270 0 270 0 0 35 0 35 205 0 205 0 0 35 0
35 240 0 240 0 0 35 0 35 100 0 100 0 0 35 0 35 70 0 70 0 0 30 c0 28 3 30 35
30 33 0 35 2 35 35 l0 35 65 0 65 0 0 35 c0 33 2 35 35 35 33 0 35 2 35 35 0
33 2 35 35 35 33 0 35 2 35 35 0 33 2 35 35 35 32 0 35 2 35 30 0 27 3 30 30
30 28 0 30 3 30 35 l0 35 70 0 70 0 0 35 c0 33 2 35 35 35 33 0 35 2 35 35 0
33 2 35 35 35 l35 0 0 65 0 65 65 0 65 0 0 -65 0 -65 -35 0 -35 0 0 -70 0 -70
-30 0 -30 0 0 -65 0 -65 -35 0 c-33 0 -35 -2 -35 -35 0 -33 -2 -35 -35 -35
-33 0 -35 -2 -35 -35 0 -33 -2 -35 -35 -35 l-35 0 0 -70 0 -70 -35 0 c-32 0
-35 -2 -35 -30 0 -27 -3 -30 -30 -30 -28 0 -30 -3 -30 -35 0 -33 -2 -35 -35
-35 -33 0 -35 -2 -35 -35 0 -33 -2 -35 -35 -35 -33 0 -35 -2 -35 -35 l0 -35
-70 0 -70 0 0 -35 c0 -32 -2 -35 -30 -35 -27 0 -30 -3 -30 -30 0 -28 -3 -30
-35 -30 -33 0 -35 -2 -35 -35 l0 -35 -70 0 -70 0 0 -35 0 -35 -65 0 -65 0 0
-35 0 -35 -70 0 -70 0 0 -35 0 -35 -100 0 -100 0 0 -30 0 -30 -170 0 -170 0 0
-35 0 -35 -340 0 -340 0 0 -35 0 -35 135 0 135 0 0 -35 c0 -33 2 -35 35 -35
l35 0 0 -100 0 -100 -35 0 c-33 0 -35 -2 -35 -35 0 -33 -2 -35 -35 -35 l-35 0
0 -70 0 -70 70 0 70 0 0 35 c0 32 2 35 30 35 28 0 30 3 30 35 0 33 2 35 35 35
33 0 35 2 35 35 0 33 2 35 35 35 33 0 35 2 35 35 l0 35 70 0 70 0 0 30 0 30
170 0 170 0 0 -30 c0 -27 3 -30 30 -30 l30 0 0 -105 0 -105 -30 0 c-28 0 -30
-3 -30 -35 0 -33 -2 -35 -35 -35 -32 0 -35 -2 -35 -30 l0 -30 65 0 65 0 0 30
c0 28 3 30 35 30 33 0 35 2 35 35 l0 35 170 0 170 0 0 -35 c0 -33 2 -35 35
-35 l35 0 0 -65 0 -65 70 0 70 0 0 -35 0 -35 65 0 65 0 0 -170 0 -170 -65 0
-65 0 0 -35 0 -35 -105 0 -105 0 0 -65 0 -65 35 0 35 0 0 -70 0 -70 -35 0
c-33 0 -35 -2 -35 -35 l0 -35 -205 0 -205 0 0 35 0 35 -65 0 -65 0 0 -70 0
-70 35 0 c32 0 35 -2 35 -30 0 -27 3 -30 30 -30 l30 0 0 -70 0 -70 -30 0 c-28
0 -30 -3 -30 -35 l0 -35 -105 0 -105 0 0 -35 0 -35 -65 0 -65 0 0 35 0 35
-105 0 -105 0 0 35 0 35 -65 0 -65 0 0 35 c0 33 -2 35 -35 35 -33 0 -35 2 -35
35 l0 35 -70 0 -70 0 0 30 0 30 -65 0 -65 0 0 -30 c0 -27 3 -30 30 -30 28 0
30 -3 30 -35 0 -33 2 -35 35 -35 l35 0 0 -105 0 -105 -35 0 c-32 0 -35 -2 -35
-30 l0 -30 -135 0 -135 0 0 30 c0 28 -3 30 -35 30 -33 0 -35 2 -35 35 l0 35
-65 0 c-51 0 -65 3 -65 15 0 10 10 15 30 15 23 0 30 4 30 20 0 18 -7 20 -65
20 l-65 0 0 70 0 70 -35 0 c-32 0 -35 2 -35 30 0 28 -3 30 -35 30 -33 0 -35 2
-35 35 l0 35 -65 0 -65 0 0 -100 0 -100 -70 0 -70 0 0 35 0 35 -70 0 -70 0 0
65 0 65 -30 0 c-28 0 -30 3 -30 35 0 33 -2 35 -35 35 -33 0 -35 2 -35 35 l0
35 -105 0 -105 0 0 35 c0 32 -2 35 -30 35 -27 0 -30 3 -30 30 l0 30 -70 0 -70
0 0 35 c0 33 -2 35 -35 35 -33 0 -35 2 -35 35 l0 35 -205 0 -205 0 0 135 0
135 70 0 70 0 0 -35 0 -35 135 0 135 0 0 -30 c0 -28 3 -30 35 -30 32 0 35 2
35 30 0 28 3 30 35 30 33 0 35 2 35 35 0 33 2 35 35 35 l35 0 0 70 0 70 65 0
65 0 0 35 0 35 170 0 170 0 0 65 0 65 35 0 c33 0 35 2 35 35 l0 35 70 0 70 0
0 35 0 35 100 0 100 0 0 -35 c0 -33 2 -35 35 -35 l35 0 0 -70 0 -70 -35 0
c-32 0 -35 -2 -35 -30 0 -28 -3 -30 -35 -30 -33 0 -35 -2 -35 -35 l0 -35 70 0
70 0 0 35 c0 33 2 35 35 35 32 0 35 2 35 30 0 27 3 30 30 30 l30 0 0 70 0 70
35 0 c33 0 35 2 35 35 0 33 2 35 35 35 l35 0 0 65 0 65 35 0 c33 0 35 2 35 35
l0 35 70 0 70 0 0 35 0 35 -205 0 -205 0 0 -35 0 -35 -170 0 -170 0 0 -35 0
-35 -140 0 -140 0 0 -30 0 -30 -100 0 -100 0 0 -35 0 -35 -100 0 -100 0 0 -35
0 -35 -140 0 -140 0 0 -35 0 -35 -135 0 -135 0 0 -35 0 -35 -100 0 -100 0 0
-30 0 -30 -105 0 -105 0 0 -35 0 -35 -65 0 -65 0 0 -35 0 -35 -70 0 -70 0 0
-35 0 -35 -65 0 -65 0 0 -35 0 -35 -70 0 -70 0 0 -30 0 -30 -70 0 -70 0 0 -35
c0 -32 -2 -35 -30 -35 -28 0 -30 -3 -30 -35 l0 -35 -70 0 -70 0 0 -35 0 -35
-70 0 -70 0 0 -35 c0 -32 -2 -35 -30 -35 -27 0 -30 -3 -30 -30 0 -28 -3 -30
-35 -30 -33 0 -35 -2 -35 -35 l0 -35 -70 0 -70 0 0 -35 c0 -33 -2 -35 -35 -35
-33 0 -35 -2 -35 -35 0 -32 -2 -35 -30 -35 -28 0 -30 -3 -30 -35 0 -33 -2 -35
-35 -35 -32 0 -35 -2 -35 -30 0 -28 -3 -30 -35 -30 -33 0 -35 -2 -35 -35 0
-33 -2 -35 -35 -35 -33 0 -35 -2 -35 -35 0 -33 -2 -35 -35 -35 -33 0 -35 -2
-35 -35 0 -32 -2 -35 -30 -35 -28 0 -30 -3 -30 -35 0 -33 -2 -35 -35 -35 l-35
0 0 -65 0 -65 -35 0 c-33 0 -35 -2 -35 -35 0 -33 -2 -35 -35 -35 l-35 0 0 -70
0 -70 -35 0 c-32 0 -35 -2 -35 -30 0 -27 -3 -30 -30 -30 -28 0 -30 -3 -30 -35
0 -33 -2 -35 -35 -35 l-35 0 0 -70 0 -70 -35 0 c-33 0 -35 -2 -35 -35 0 -33
-2 -35 -35 -35 l-35 0 0 -65 0 -65 -35 0 c-33 0 -35 -2 -35 -35 0 -32 -2 -35
-30 -35 l-30 0 0 -100 0 -100 -35 0 c-33 0 -35 -2 -35 -35 0 -33 -2 -35 -35
-35 -33 0 -35 -2 -35 -35 0 -33 -2 -35 -35 -35 l-35 0 0 -70 0 -70 -35 0 -35
0 0 -65 0 -65 -30 0 c-28 0 -30 -3 -30 -35 0 -33 -2 -35 -35 -35 l-35 0 0 -70
0 -70 -35 0 -35 0 0 -65 0 -65 -35 0 c-33 0 -35 -2 -35 -35 0 -33 -2 -35 -35
-35 -33 0 -35 -2 -35 -35 0 -32 -2 -35 -30 -35 l-30 0 0 70 0 70 30 0 30 0 0
100 0 100 35 0 35 0 0 105 0 105 35 0 35 0 0 65 0 65 35 0 35 0 0 105 0 105
35 0 35 0 0 65 0 65 30 0 30 0 0 70 0 70 35 0 35 0 0 65 0 65 35 0 35 0 0 70
0 70 35 0 35 0 0 70 0 70 35 0 35 0 0 65 0 65 30 0 30 0 0 70 0 70 35 0 c33 0
35 2 35 35 0 33 2 35 35 35 l35 0 0 65 0 65 35 0 35 0 0 70 0 70 35 0 c33 0
35 2 35 35 0 32 2 35 30 35 l30 0 0 65 0 65 35 0 c33 0 35 2 35 35 0 33 2 35
35 35 33 0 35 2 35 35 0 33 2 35 35 35 l35 0 0 65 0 65 35 0 c33 0 35 2 35 35
0 32 2 35 30 35 l30 0 0 70 0 70 35 0 c33 0 35 2 35 35 0 33 2 35 35 35 32 0
35 2 35 30 0 28 3 30 35 30 33 0 35 2 35 35 0 33 2 35 35 35 l35 0 0 70 0 70
30 0 c28 0 30 3 30 35 0 33 2 35 35 35 32 0 35 2 35 30 0 28 3 30 35 30 33 0
35 2 35 35 0 33 2 35 35 35 33 0 35 2 35 35 0 33 2 35 35 35 33 0 35 2 35 35
0 32 2 35 30 35 28 0 30 3 30 35 0 33 2 35 35 35 32 0 35 2 35 30 0 28 3 30
35 30 33 0 35 2 35 35 0 33 2 35 35 35 33 0 35 2 35 35 0 33 2 35 35 35 33 0
35 2 35 35 0 32 2 35 30 35 28 0 30 3 30 35 0 33 2 35 35 35 32 0 35 2 35 30
0 28 3 30 35 30 33 0 35 2 35 35 0 33 2 35 35 35 33 0 35 2 35 35 0 33 2 35
35 35 33 0 35 2 35 35 0 32 2 35 30 35 28 0 30 3 30 35 0 33 2 35 35 35 32 0
35 2 35 30 l0 30 70 0 70 0 0 35 c0 33 2 35 35 35 33 0 35 2 35 35 0 32 2 35
30 35 28 0 30 3 30 35 0 33 2 35 35 35 33 0 35 2 35 35 l0 35 70 0 70 0 0 30
c0 28 3 30 35 30 33 0 35 2 35 35 0 32 2 35 30 35 28 0 30 3 30 35 0 33 2 35
35 35 33 0 35 2 35 35 0 33 2 35 35 35 l35 0 0 65 0 65 35 0 c33 0 35 2 35 35
0 33 2 35 35 35 l35 0 0 70 0 70 30 0 30 0 0 65 0 65 35 0 35 0 0 105 0 105
35 0 35 0 0 100 0 100 35 0 c33 0 35 2 35 35 0 33 2 35 35 35 l35 0 0 -340z
m2450 135 l0 -205 -35 0 -35 0 0 -65 0 -65 35 0 c33 0 35 -2 35 -35 0 -33 -2
-35 -35 -35 -33 0 -35 -2 -35 -35 0 -33 -2 -35 -35 -35 -33 0 -35 -2 -35 -35
0 -33 -2 -35 -35 -35 -33 0 -35 -2 -35 -35 l0 -35 -65 0 -65 0 0 -30 c0 -27 3
-30 30 -30 28 0 30 -3 30 -35 0 -32 -2 -35 -30 -35 -28 0 -30 -3 -30 -35 l0
-35 -70 0 -70 0 0 -35 c0 -33 -2 -35 -35 -35 -33 0 -35 2 -35 35 0 33 -2 35
-35 35 -33 0 -35 -2 -35 -35 0 -32 -2 -35 -30 -35 -28 0 -30 -3 -30 -35 l0
-35 -170 0 -170 0 0 -30 0 -30 -105 0 -105 0 0 -35 0 -35 -70 0 -70 0 0 65 0
65 70 0 70 0 0 70 0 70 35 0 35 0 0 100 0 100 35 0 35 0 0 105 0 105 35 0 c33
0 35 2 35 35 0 32 2 35 30 35 l30 0 0 100 0 100 35 0 c33 0 35 2 35 35 l0 35
105 0 105 0 0 70 0 70 30 0 c27 0 30 3 30 30 l0 30 105 0 105 0 0 35 0 35 205
0 205 0 0 -205z m-4490 -780 c0 -32 2 -35 30 -35 28 0 30 -3 30 -35 0 -33 2
-35 35 -35 33 0 35 2 35 35 l0 35 105 0 105 0 0 -35 0 -35 65 0 65 0 0 -35 c0
-33 2 -35 35 -35 l35 0 0 -65 0 -65 -35 0 c-33 0 -35 -2 -35 -35 0 -33 -2 -35
-35 -35 l-35 0 0 -100 0 -100 -30 0 c-28 0 -30 -3 -30 -35 0 -33 -2 -35 -35
-35 l-35 0 0 -70 0 -70 -35 0 c-33 0 -35 -2 -35 -35 l0 -35 -205 0 -205 0 0
-100 0 -100 -135 0 -135 0 0 35 0 35 -100 0 -100 0 0 -35 0 -35 -70 0 -70 0 0
35 0 35 -70 0 -70 0 0 35 0 35 -235 0 -235 0 0 65 0 65 65 0 65 0 0 35 0 35
70 0 70 0 0 70 0 70 35 0 c32 0 35 2 35 30 l0 30 65 0 65 0 0 70 0 70 35 0
c33 0 35 2 35 35 l0 35 70 0 70 0 0 -35 c0 -33 2 -35 35 -35 l35 0 0 70 0 70
30 0 30 0 0 65 0 65 35 0 c33 0 35 2 35 35 l0 35 105 0 105 0 0 -70 0 -70 30
0 c28 0 30 3 30 35 0 33 2 35 35 35 33 0 35 2 35 35 0 33 2 35 35 35 33 0 35
2 35 35 l0 35 70 0 70 0 0 -35z m-8510 -530 c0 -8 -9 -15 -20 -15 -11 0 -20 7
-20 15 0 8 9 15 20 15 11 0 20 -7 20 -15z m1980 -420 c0 -32 2 -35 30 -35 28
0 30 -3 30 -35 l0 -35 70 0 70 0 0 -35 c0 -33 2 -35 35 -35 33 0 35 -2 35 -35
0 -33 2 -35 35 -35 32 0 35 -2 35 -30 0 -27 3 -30 30 -30 28 0 30 -3 30 -35 0
-33 2 -35 35 -35 33 0 35 -2 35 -35 0 -33 2 -35 35 -35 33 0 35 -2 35 -35 0
-33 2 -35 35 -35 33 0 35 -2 35 -35 0 -33 2 -35 35 -35 32 0 35 -2 35 -30 0
-27 3 -30 30 -30 28 0 30 -3 30 -35 0 -33 2 -35 35 -35 33 0 35 -2 35 -35 0
-33 2 -35 35 -35 33 0 35 -2 35 -35 0 -33 2 -35 35 -35 33 0 35 -2 35 -35 0
-33 2 -35 35 -35 32 0 35 -2 35 -30 0 -27 3 -30 30 -30 28 0 30 -3 30 -35 0
-33 2 -35 35 -35 33 0 35 -2 35 -35 0 -33 2 -35 35 -35 33 0 35 -2 35 -35 0
-33 2 -35 35 -35 33 0 35 -2 35 -35 0 -33 2 -35 35 -35 l35 0 0 -65 0 -65 30
0 c28 0 30 -3 30 -35 0 -33 2 -35 35 -35 33 0 35 -2 35 -35 0 -33 2 -35 35
-35 33 0 35 -2 35 -35 0 -33 2 -35 35 -35 32 0 35 -2 35 -30 0 -28 3 -30 35
-30 33 0 35 -2 35 -35 l0 -35 65 0 65 0 0 -35 c0 -33 2 -35 35 -35 33 0 35 -2
35 -35 0 -33 2 -35 35 -35 33 0 35 -2 35 -35 0 -33 2 -35 35 -35 32 0 35 -2
35 -30 l0 -30 65 0 65 0 0 -35 0 -35 105 0 105 0 0 645 0 645 30 0 30 0 0 70
0 70 35 0 35 0 0 65 0 65 35 0 c33 0 35 2 35 35 0 33 2 35 35 35 33 0 35 2 35
35 l0 35 135 0 135 0 0 -445 0 -445 35 0 35 0 0 -170 0 -170 35 0 35 0 0 -170
0 -170 30 0 30 0 0 -100 0 -100 35 0 35 0 0 -205 0 -205 35 0 35 0 0 -270 0
-270 35 0 35 0 0 -135 0 -135 -35 0 -35 0 0 -105 0 -105 -35 0 -35 0 0 -65 0
-65 -35 0 -35 0 0 -70 0 -70 -30 0 -30 0 0 -70 0 -70 -35 0 -35 0 0 -65 0 -65
-35 0 -35 0 0 -70 0 -70 -35 0 -35 0 0 -65 0 -65 -35 0 -35 0 0 -70 0 -70 35
0 35 0 0 -305 0 -305 35 0 35 0 0 -375 0 -375 35 0 35 0 0 -375 0 -375 35 0
35 0 0 -610 0 -610 30 0 30 0 0 -143 0 -144 -42 39 c-56 51 -150 97 -229 110
-55 9 -107 6 -379 -26 -313 -36 -418 -58 -474 -95 -59 -40 -123 -111 -169
-192 l-49 -84 -44 3 c-35 3 -44 8 -44 23 0 12 -7 19 -20 19 -13 0 -20 7 -20
20 0 11 -4 20 -10 20 -7 0 -10 228 -10 665 0 437 3 665 10 665 6 0 10 -16 10
-35 0 -28 4 -35 19 -35 15 0 21 -8 24 -37 2 -21 4 224 5 545 l2 582 30 0 30 0
0 440 0 440 -30 0 -30 0 0 170 0 170 -35 0 -35 0 0 70 0 70 -35 0 c-33 0 -35
2 -35 35 0 33 -2 35 -35 35 -33 0 -35 2 -35 35 l0 35 -65 0 -65 0 0 35 c0 33
-2 35 -35 35 -32 0 -35 2 -35 30 l0 30 -70 0 -70 0 0 35 0 35 -65 0 -65 0 0
35 c0 33 -2 35 -35 35 -33 0 -35 2 -35 35 l0 35 -70 0 -70 0 0 35 0 35 -65 0
-65 0 0 30 0 30 -70 0 -70 0 0 35 0 35 -270 0 c-173 0 -270 4 -270 10 0 6 14
10 30 10 25 0 30 4 30 25 l0 25 -610 0 -610 0 0 35 0 35 -100 0 -100 0 0 35
c0 33 -2 35 -35 35 -32 0 -35 2 -35 30 0 28 -3 30 -35 30 -33 0 -35 2 -35 35
0 33 -2 35 -35 35 -33 0 -35 2 -35 35 0 33 2 35 35 35 33 0 35 2 35 35 0 33 2
35 35 35 33 0 35 2 35 35 0 33 2 35 35 35 32 0 35 2 35 30 l0 30 270 0 270 0
0 -30 0 -30 70 0 70 0 0 30 0 30 440 0 440 0 0 105 0 105 -25 0 c-22 0 -25 -4
-25 -35 0 -19 -4 -35 -10 -35 -5 0 -10 16 -10 35 l0 35 -100 0 -100 0 0 35 0
35 -105 0 -105 0 0 30 0 30 -100 0 -100 0 0 35 0 35 -100 0 -100 0 0 35 0 35
-105 0 -105 0 0 35 0 35 -65 0 -65 0 0 35 0 35 -105 0 -105 0 0 30 0 30 -100
0 -100 0 0 35 0 35 -105 0 -105 0 0 35 c0 32 -2 35 -30 35 -28 0 -30 3 -30 35
0 33 -2 35 -35 35 -33 0 -35 2 -35 35 0 33 -2 35 -35 35 l-35 0 0 100 0 100
35 0 c33 0 35 2 35 35 0 33 2 35 35 35 33 0 35 2 35 35 l0 35 170 0 170 0 0
-35 0 -35 65 0 65 0 0 -35 0 -35 70 0 70 0 0 -35 0 -35 135 0 135 0 0 -35 0
-35 170 0 170 0 0 -30 0 -30 135 0 135 0 0 -35 0 -35 105 0 105 0 0 -35 0 -35
100 0 100 0 0 -35 0 -35 70 0 70 0 0 70 0 70 -70 0 -70 0 0 35 0 35 -70 0 -70
0 0 30 0 30 -65 0 -65 0 0 35 0 35 -70 0 -70 0 0 35 0 35 -65 0 -65 0 0 35 0
35 -70 0 -70 0 0 35 0 35 -70 0 -70 0 0 30 c0 27 -3 30 -30 30 -28 0 -30 3
-30 35 l0 35 -70 0 -70 0 0 35 0 35 -70 0 -70 0 0 35 0 35 -65 0 -65 0 0 35 0
35 -105 0 -105 0 0 30 0 30 -65 0 -65 0 0 35 c0 33 -2 35 -35 35 -33 0 -35 2
-35 35 0 33 -2 35 -35 35 l-35 0 0 135 0 135 35 0 c33 0 35 2 35 35 0 33 2 35
35 35 33 0 35 2 35 35 l0 35 135 0 135 0 0 -35 0 -35 100 0 100 0 0 -35 0 -35
70 0 70 0 0 -35 0 -35 70 0 70 0 0 -30 0 -30 100 0 100 0 0 -35 0 -35 70 0 70
0 0 -35 0 -35 65 0 65 0 0 -35 0 -35 105 0 105 0 0 -35 0 -35 65 0 65 0 0 -30
0 -30 70 0 70 0 0 -35 0 -35 65 0 65 0 0 -35 0 -35 70 0 70 0 0 -35 c0 -33 2
-35 35 -35 33 0 35 -2 35 -35 l0 -35 100 0 100 0 0 140 0 140 -35 0 c-32 0
-35 2 -35 30 0 27 -3 30 -30 30 -28 0 -30 3 -30 35 0 33 -2 35 -35 35 -33 0
-35 2 -35 35 0 33 -2 35 -35 35 l-35 0 0 70 0 70 -35 0 c-32 0 -35 2 -35 30 0
28 -3 30 -35 30 -33 0 -35 2 -35 35 0 32 -2 35 -30 35 l-30 0 0 70 0 70 -35 0
c-33 0 -35 2 -35 35 0 33 -2 35 -35 35 -32 0 -35 2 -35 30 0 28 -3 30 -35 30
-33 0 -35 2 -35 35 0 33 -2 35 -35 35 -33 0 -35 2 -35 35 0 32 -2 35 -30 35
-28 0 -30 3 -30 35 0 33 -2 35 -35 35 -33 0 -35 2 -35 35 0 33 -2 35 -35 35
-32 0 -35 2 -35 30 0 28 -3 30 -35 30 l-35 0 0 70 0 70 -35 0 c-33 0 -35 2
-35 35 0 32 -2 35 -30 35 l-30 0 0 65 0 65 -35 0 -35 0 0 70 0 70 35 0 c33 0
35 2 35 35 0 32 2 35 30 35 28 0 30 3 30 35 l0 35 140 0 140 0 0 -35z m-1140
-1704 c0 -12 8 -21 23 -24 16 -3 13 -5 -10 -6 -29 -1 -33 2 -33 24 0 14 5 25
10 25 6 0 10 -9 10 -19z m8210 -611 c0 -28 3 -30 35 -30 33 0 35 -2 35 -35 0
-33 2 -35 35 -35 l35 0 0 -70 0 -70 -35 0 -35 0 0 -65 0 -65 -35 0 c-33 0 -35
-2 -35 -35 0 -33 -2 -35 -35 -35 -33 0 -35 -2 -35 -35 0 -33 -2 -35 -35 -35
-33 0 -35 -2 -35 -35 0 -32 -2 -35 -30 -35 -28 0 -30 -3 -30 -35 0 -33 -2 -35
-35 -35 -32 0 -35 -2 -35 -30 0 -28 -3 -30 -35 -30 -33 0 -35 -2 -35 -35 0
-33 -2 -35 -35 -35 l-35 0 0 -70 0 -70 -35 0 c-33 0 -35 -2 -35 -35 0 -32 -2
-35 -30 -35 -27 0 -30 -3 -30 -30 0 -28 -3 -30 -35 -30 -33 0 -35 -2 -35 -35
0 -33 -2 -35 -35 -35 l-35 0 0 -70 0 -70 -35 0 c-33 0 -35 -2 -35 -35 0 -33
-2 -35 -35 -35 -32 0 -35 -2 -35 -30 0 -27 -3 -30 -30 -30 -28 0 -30 -3 -30
-35 0 -33 -2 -35 -35 -35 -33 0 -35 -2 -35 -35 0 -33 -2 -35 -35 -35 l-35 0 0
-70 0 -70 -35 0 -35 0 0 -135 0 -135 70 0 70 0 0 35 0 35 65 0 65 0 0 35 0 35
70 0 70 0 0 35 0 35 70 0 70 0 0 30 0 30 65 0 65 0 0 35 0 35 70 0 70 0 0 35
0 35 100 0 100 0 0 35 0 35 70 0 70 0 0 35 0 35 100 0 100 0 0 30 0 30 105 0
105 0 0 35 0 35 65 0 65 0 0 35 0 35 70 0 70 0 0 35 0 35 100 0 100 0 0 35 0
35 70 0 70 0 0 -35 c0 -33 2 -35 35 -35 33 0 35 -2 35 -35 0 -32 2 -35 30 -35
28 0 30 -3 30 -35 0 -33 2 -35 35 -35 l35 0 0 -100 0 -100 -35 0 c-33 0 -35
-2 -35 -35 0 -32 -2 -35 -30 -35 -28 0 -30 -3 -30 -35 l0 -35 -70 0 -70 0 0
-35 0 -35 -70 0 -70 0 0 -30 0 -30 -100 0 -100 0 0 -35 0 -35 -70 0 -70 0 0
-35 0 -35 -65 0 -65 0 0 -35 0 -35 -70 0 -70 0 0 -35 0 -35 -65 0 -65 0 0 -30
0 -30 -70 0 -70 0 0 -35 0 -35 -70 0 -70 0 0 -35 0 -35 -65 0 -65 0 0 -35 0
-35 -70 0 -70 0 0 -35 0 -35 -65 0 -65 0 0 -35 0 -35 -70 0 -70 0 0 -65 0 -65
70 0 70 0 0 35 0 35 100 0 100 0 0 30 0 30 135 0 135 0 0 35 0 35 170 0 170 0
0 35 0 35 170 0 170 0 0 35 0 35 105 0 105 0 0 35 0 35 100 0 100 0 0 35 0 35
100 0 100 0 0 30 0 30 70 0 70 0 0 -30 c0 -28 3 -30 35 -30 33 0 35 -2 35 -35
0 -33 2 -35 35 -35 l35 0 0 -140 0 -140 -35 0 c-32 0 -35 -2 -35 -30 l0 -30
-70 0 -70 0 0 -35 0 -35 -65 0 -65 0 0 -35 0 -35 -105 0 -105 0 0 -35 0 -35
-100 0 -100 0 0 -35 0 -35 -70 0 -70 0 0 -30 0 -30 -100 0 -100 0 0 -35 0 -35
-105 0 -105 0 0 -35 0 -35 -135 0 -135 0 0 -35 0 -35 -135 0 -135 0 0 -35 0
-35 -100 0 -100 0 0 -30 c0 -28 -3 -30 -35 -30 -33 0 -35 -2 -35 -35 l0 -35
65 0 65 0 0 -35 0 -35 340 0 340 0 0 -35 0 -35 205 0 205 0 0 35 0 35 170 0
170 0 0 -35 0 -35 70 0 70 0 0 -35 c0 -33 2 -35 35 -35 l35 0 0 -135 0 -135
-70 0 -70 0 0 -35 0 -35 -100 0 -100 0 0 -30 0 -30 -750 0 -750 0 0 -35 0 -35
-135 0 -135 0 0 -35 0 -35 -105 0 -105 0 0 -35 c0 -32 -2 -35 -30 -35 -28 0
-30 -3 -30 -35 l0 -35 -70 0 -70 0 0 -30 c0 -28 -3 -30 -35 -30 -33 0 -35 -2
-35 -35 l0 -35 -65 0 -65 0 0 -35 c0 -33 -2 -35 -35 -35 -33 0 -35 -2 -35 -35
l0 -35 -70 0 -70 0 0 -35 0 -35 -65 0 -65 0 0 -30 c0 -28 -3 -30 -35 -30 -33
0 -35 -2 -35 -35 0 -33 -2 -35 -35 -35 -33 0 -35 -2 -35 -35 0 -33 -2 -35 -35
-35 -33 0 -35 -2 -35 -35 0 -33 -2 -35 -35 -35 l-35 0 0 -100 0 -100 -30 0
c-28 0 -30 -3 -30 -35 0 -32 2 -35 30 -35 l30 0 0 -570 0 -570 -42 7 c-24 5
-124 8 -223 7 -146 0 -199 -5 -284 -23 -57 -12 -104 -21 -105 -19 -43 75 -143
160 -224 191 -27 10 -82 45 -122 78 -41 32 -92 67 -112 76 l-38 17 0 198 0
198 30 0 30 0 0 275 0 275 35 0 35 0 -2 273 c-1 149 -3 255 -5 235 -4 -34 -7
-38 -34 -38 l-29 0 0 105 0 105 -30 0 -30 0 0 100 0 100 -35 0 -35 0 0 70 0
70 -35 0 -35 0 0 65 0 65 -35 0 -35 0 0 105 0 105 -35 0 -35 0 0 270 0 270 35
0 35 0 0 340 0 340 35 0 35 0 0 105 0 105 35 0 35 0 0 135 0 135 35 0 35 0 0
135 0 135 30 0 30 0 0 170 0 170 35 0 35 0 0 410 0 410 35 0 c32 0 35 2 35 30
l0 30 70 0 70 0 0 -30 c0 -28 3 -30 35 -30 33 0 35 -2 35 -35 0 -32 2 -35 30
-35 28 0 30 -3 30 -35 0 -33 2 -35 35 -35 l35 0 0 -70 0 -70 35 0 35 0 0 -65
0 -65 35 0 35 0 0 -375 0 -375 -35 0 -35 0 0 -205 0 -205 35 0 c33 0 35 -2 35
-35 0 -33 2 -35 35 -35 32 0 35 -2 35 -30 0 -27 3 -30 30 -30 27 0 30 3 30 30
l0 30 70 0 70 0 0 35 c0 33 2 35 35 35 33 0 35 2 35 35 l0 35 65 0 65 0 0 35
c0 33 2 35 35 35 33 0 35 2 35 35 0 33 2 35 35 35 32 0 35 2 35 30 0 28 3 30
35 30 33 0 35 2 35 35 0 33 2 35 35 35 33 0 35 2 35 35 0 32 2 35 30 35 28 0
30 3 30 35 0 33 2 35 35 35 33 0 35 2 35 35 0 33 2 35 35 35 32 0 35 2 35 30
0 28 3 30 35 30 33 0 35 2 35 35 0 33 2 35 35 35 33 0 35 2 35 35 0 32 2 35
30 35 28 0 30 3 30 35 0 33 2 35 35 35 33 0 35 2 35 35 0 33 2 35 35 35 32 0
35 2 35 30 0 28 3 30 35 30 33 0 35 2 35 35 0 33 2 35 35 35 33 0 35 2 35 35
0 32 2 35 30 35 28 0 30 3 30 35 0 33 2 35 35 35 33 0 35 2 35 35 0 33 2 35
35 35 32 0 35 2 35 30 0 28 3 30 35 30 33 0 35 2 35 35 0 33 2 35 35 35 33 0
35 2 35 35 l0 35 65 0 65 0 0 35 c0 33 2 35 35 35 33 0 35 2 35 35 0 33 2 35
35 35 32 0 35 2 35 30 0 28 3 30 35 30 33 0 35 2 35 35 0 32 2 35 30 35 28 0
30 3 30 35 0 33 2 35 35 35 33 0 35 2 35 35 0 33 2 35 35 35 33 0 35 2 35 35
l0 35 70 0 70 0 0 30 0 30 100 0 100 0 0 -30z m-1290 -4170 c0 -5 -11 -10 -25
-10 -14 0 -25 5 -25 10 0 6 11 10 25 10 14 0 25 -4 25 -10z m-5970 -1034 c0
-2 297 -891 660 -1976 363 -1084 660 -1978 660 -1985 0 -14 -400 -118 -411
-106 -4 3 -70 198 -149 434 l-142 427 -851 -2 -851 -3 -204 -570 c-112 -313
-206 -572 -207 -573 -5 -6 -914 612 -915 621 0 11 1739 3650 1751 3661 5 6
152 24 326 42 175 17 321 32 326 33 4 0 7 -1 7 -3z m1263 -753 c8 -21 121
-338 252 -705 131 -368 241 -668 245 -668 3 0 149 262 325 583 175 320 319
583 320 585 1 1 129 17 284 35 190 22 284 30 286 23 2 -6 18 -312 36 -681 17
-368 35 -674 39 -678 4 -4 168 278 364 627 235 418 362 634 369 629 7 -4 65
-49 129 -101 117 -94 117 -95 103 -121 -8 -14 -225 -359 -482 -765 l-468 -740
-154 -38 c-85 -22 -157 -35 -161 -31 -4 4 -80 298 -169 653 -90 355 -165 649
-168 654 -4 5 -102 -247 -218 -560 -117 -313 -219 -572 -226 -577 -23 -13
-582 -197 -587 -193 -5 5 -482 1986 -482 2002 0 9 299 101 336 103 7 1 18 -16
27 -36z m5467 -51 c0 -5 -15 -85 -34 -178 -19 -93 -33 -170 -32 -171 1 -1 38
28 83 65 280 232 572 291 828 168 38 -18 89 -50 112 -70 52 -46 126 -156 160
-238 35 -88 70 -252 82 -388 14 -156 27 -1050 15 -1051 -5 0 -182 -24 -394
-53 -212 -29 -388 -51 -391 -50 -3 2 7 72 22 156 15 84 48 282 73 439 25 157
59 355 76 440 68 336 46 485 -81 550 -144 73 -345 -1 -560 -207 -120 -115
-100 -57 -213 -598 -56 -267 -105 -488 -108 -491 -5 -6 -411 -83 -416 -80 -6
5 80 1710 87 1717 3 3 155 15 336 26 182 11 336 20 343 21 6 0 12 -3 12 -7z
m2567 -466 c184 -40 326 -134 430 -286 147 -216 226 -607 194 -960 -12 -130
-48 -349 -60 -363 -12 -12 -225 -54 -371 -73 -264 -33 -633 -6 -836 62 -246
82 -382 218 -416 412 -10 60 -9 82 4 146 25 112 61 177 143 255 83 79 218 152
365 199 110 35 320 78 433 88 43 4 80 10 82 14 11 18 -31 104 -72 150 -155
173 -484 172 -704 -1 l-36 -29 -36 54 -36 54 57 54 c127 120 284 199 465 234
90 17 294 12 394 -10z m-4257 -90 c107 -30 180 -74 270 -165 70 -70 95 -105
137 -186 133 -259 188 -610 150 -939 l-12 -99 -55 -19 c-85 -29 -285 -76 -395
-93 -318 -48 -648 -18 -820 73 -27 15 -82 58 -121 97 -90 89 -109 137 -109
275 0 86 3 101 31 160 92 192 331 332 727 425 66 16 117 33 117 39 0 7 -15 36
-33 66 -60 102 -170 145 -347 138 -88 -3 -103 -7 -180 -44 -47 -23 -107 -61
-134 -84 l-48 -44 -34 40 c-18 21 -33 44 -34 50 0 7 42 52 93 101 129 123 274
196 442 223 80 12 287 4 355 -14z m-1755 -1718 c5 -23 65 -319 65 -323 0 -1
-26 -5 -59 -8 -71 -8 -202 -48 -297 -92 -144 -66 -265 -169 -306 -262 -17 -38
-20 -61 -16 -129 4 -70 10 -94 40 -156 123 -247 409 -351 805 -292 58 8 106
14 107 12 4 -5 54 -413 52 -416 -7 -7 -215 -22 -313 -22 -414 -1 -751 124
-924 343 -57 71 -115 193 -135 284 -22 99 -15 277 15 378 92 308 332 552 644
655 84 27 194 48 264 49 47 1 53 -2 58 -21z m820 -58 c137 -28 251 -53 254
-55 6 -7 66 -1523 60 -1529 -10 -11 -353 -26 -359 -16 -3 5 -59 373 -124 817
-65 444 -120 816 -123 827 -4 16 -1 18 18 13 13 -3 136 -29 274 -57z m2659 -9
c4 -28 6 -186 6 -353 l-1 -303 53 -8 c134 -20 376 -70 470 -98 209 -61 355
-158 416 -273 23 -44 27 -63 27 -136 0 -73 -4 -92 -27 -136 -66 -126 -236
-220 -469 -259 -202 -35 -573 -30 -704 9 l-50 15 -103 723 c-57 398 -104 730
-105 738 -2 11 51 28 223 72 124 31 232 57 241 57 12 1 18 -12 23 -48z m1538
-65 c41 -8 109 -26 151 -40 91 -31 277 -122 277 -136 0 -11 -78 -221 -84 -228
-2 -2 -51 19 -107 47 -115 55 -215 81 -312 81 -127 0 -227 -51 -227 -115 0
-85 128 -155 377 -205 402 -82 643 -249 643 -446 0 -73 -36 -149 -100 -215
-170 -174 -495 -217 -843 -112 -68 20 -86 30 -83 42 3 9 10 43 16 76 6 33 18
90 26 126 l15 66 97 -20 c135 -28 411 -31 459 -4 68 37 49 97 -51 165 -80 54
-201 102 -378 147 -191 49 -299 91 -387 149 -208 139 -238 349 -70 500 103 93
227 135 401 135 58 1 140 -5 180 -13z m-2324 -251 c21 -139 20 -450 -1 -565
-60 -328 -200 -550 -407 -649 -65 -31 -86 -36 -167 -39 -113 -5 -198 18 -293
79 -265 171 -421 545 -456 1092 -6 88 -4 107 7 107 26 0 271 -29 274 -32 2 -2
13 -64 25 -137 91 -562 261 -839 437 -712 54 39 84 80 127 171 74 158 116 369
116 584 l0 126 28 7 c117 30 260 61 277 60 17 -2 22 -14 33 -92z"/>
<path d="M9438 18513 c6 -2 18 -2 25 0 6 3 1 5 -13 5 -14 0 -19 -2 -12 -5z"/>
<path d="M5930 13530 c0 -5 7 -10 15 -10 8 0 15 5 15 10 0 6 -7 10 -15 10 -8
0 -15 -4 -15 -10z"/>
<path d="M2830 13250 c0 -11 5 -20 10 -20 6 0 10 9 10 20 0 11 -4 20 -10 20
-5 0 -10 -9 -10 -20z"/>
<path d="M12080 14405 c0 -8 5 -15 10 -15 6 0 10 7 10 15 0 8 -4 15 -10 15 -5
0 -10 -7 -10 -15z"/>
<path d="M6072 5395 c-162 -499 -291 -909 -289 -912 5 -5 1003 235 1023 246 8
4 -61 256 -210 776 -122 424 -224 776 -227 783 -2 7 -136 -395 -297 -893z"/>
<path d="M15735 4830 c-128 -19 -212 -38 -314 -72 l-64 -21 6 -66 c3 -36 14
-194 24 -350 20 -329 0 -292 169 -311 83 -10 125 -10 173 -2 35 6 65 13 66 14
6 6 64 336 75 418 6 47 13 158 17 248 6 155 5 162 -13 161 -10 0 -73 -9 -139
-19z"/>
<path d="M11440 4810 c-103 -28 -297 -94 -308 -104 -7 -8 89 -619 99 -630 5
-6 62 -10 126 -10 121 -1 223 17 223 37 0 7 7 84 15 172 15 164 18 394 6 500
-5 55 -8 60 -31 62 -14 1 -72 -11 -130 -27z"/>
<path d="M13375 2733 c10 -115 45 -428 52 -463 8 -41 29 -45 197 -43 99 1 143
6 151 15 9 10 63 369 69 458 1 10 -24 22 -79 38 -86 24 -330 72 -372 72 l-25
0 7 -77z"/>
</g>
</svg>
