<svg xmlns="http://www.w3.org/2000/svg" viewBox="0 0 137.4 23.37"><g id="Layer_2" data-name="Layer 2"><g id="Layer_1-2" data-name="Layer 1"><path class="cls-1" d="M65,11.79a2.75,2.75,0,0,0-1.52.23l-4.78,7.75s-3.44-5.58-3.65-5.88a2.7,2.7,0,0,0-2-.77,2.1,2.1,0,0,0-1.61.78l-4.25,6-3.89-7a2.18,2.18,0,0,0-1.49-.27,1.85,1.85,0,0,0-1,.94l5,8.79h2.61l4.78-6.54,4.21,6.54h3l5.87-9.81A2.39,2.39,0,0,0,65,11.79Z"></path><path class="cls-1" d="M82.27,14.67c0-1.12-1.37-1.87-1.95-2.07a18.92,18.92,0,0,0-10.85-.35,1.21,1.21,0,0,0-.38,1.26,1.64,1.64,0,0,0,.62.9,26.32,26.32,0,0,1,5.3-.62,8.23,8.23,0,0,1,4.59,1.27V16.6a11.07,11.07,0,0,0-4.35-1c-3.83,0-7.34.5-7.26,3.76.06,2.45,2.41,3.19,4.13,3.23,2.21,0,10.07,0,10.15,0S82.23,18,82.27,14.67Zm-2.73,5.75s-6.19.07-7.18,0c-.74-.05-1.78-.49-1.8-1.34,0-1.22,2.23-1.51,4.51-1.45a12.83,12.83,0,0,1,4.5,1Z"></path><path class="cls-1" d="M99.18,14.91a8.33,8.33,0,0,0-5.1-1.85,14.72,14.72,0,0,0-4.83.4v-.63A2.31,2.31,0,0,0,88,12.47a4.14,4.14,0,0,0-1.56.4l0,9.91h2.79l0-6.87A12.14,12.14,0,0,1,94,15.37c2,.18,3.52,1.29,3.53,2.55,0,1.81,0,4.85,0,4.85h2.75s0-3.16,0-4.63S100,15.66,99.18,14.91Z"></path><path class="cls-1" d="M114.67,17.13c-.09-.9-.09-1.28-.91-1.71a13.87,13.87,0,0,0-8.68-1.08c-.52.31-.44,1.6.23,1.94a16.37,16.37,0,0,1,3.72-.2,7.73,7.73,0,0,1,3.62,1.09l.07,1a9.51,9.51,0,0,0-3.75-.76c-2.65-.07-5.37.44-5.37,2.68s1.57,3.07,3.66,3.11,7.42,0,7.42,0S114.7,17.52,114.67,17.13Zm-1.95,4.2s-4.79,0-5,0c-1.09-.06-2-.27-2-1.19s2.31-.8,3.6-.76a10,10,0,0,1,3.37.79Z"></path><path class="cls-1" d="M121.12,19.57a1.9,1.9,0,1,0,1.94,1.89A1.91,1.91,0,0,0,121.12,19.57Zm0,3.63a1.73,1.73,0,1,1,1.77-1.75A1.73,1.73,0,0,1,121.12,23.2Z"></path><path class="cls-1" d="M121.49,21.44a.58.58,0,0,0,.54-.57.56.56,0,0,0-.14-.38.78.78,0,0,0-.63-.21h-.91v2.37h.36v-1.1h.2c.49,0,.55.15.62.59a2.14,2.14,0,0,0,.13.51h.41a2.15,2.15,0,0,1-.15-.53C121.85,21.8,121.85,21.57,121.49,21.44Zm-.34-.17h-.43v-.73h.44c.26,0,.52,0,.52.36S121.41,21.26,121.14,21.26Z"></path><path class="cls-1" d="M1,22.32l.43-.22C6.43,19.55,32.34,6.71,71.71,7c41.65.27,59,11.58,64,15,.14.1.28.19.4.28.84.65,1.64,0,1-.56-.14-.14-.24-.22-.42-.37-5.41-4.63-23.9-17.18-65.32-17.08C34.27,4.33,8,17.44.94,21.43l-.5.28C-.51,22.25.27,22.74,1,22.32Z"></path><path class="cls-1" d="M14.91,22.43,25.61,4.65l11,17.78h4C40.6,22.29,27,.74,27,.74A1.66,1.66,0,0,0,25.62,0h0a1.66,1.66,0,0,0-1.4.75S11,22.21,11,22.43Z"></path></g></g></svg>